M48
; DRILL file {KiCad (6.0.0)} date Fri Mar 29 19:30:28 2024
; FORMAT={-:-/ absolute / inch / decimal}
; #@! TF.CreationDate,2024-03-29T19:30:28+00:00
; #@! TF.GenerationSoftware,Kicad,Pcbnew,(6.0.0)
; #@! TF.FileFunction,Plated,1,2,PTH
FMAT,2
INCH
; #@! TA.AperFunction,Plated,PTH,ViaDrill
T1C0.0236
; #@! TA.AperFunction,Plated,PTH,ComponentDrill
T2C0.0433
; #@! TA.AperFunction,Plated,PTH,ComponentDrill
T3C0.0591
%
G90
G05
T1
X5.0Y-2.41
X5.0Y-2.48
X5.0Y-2.55
X5.0Y-4.36
X5.0Y-4.43
X5.0Y-4.5
X5.11Y-2.41
X5.11Y-2.48
X5.11Y-2.55
X5.11Y-4.36
X5.11Y-4.43
X5.11Y-4.5
X5.21Y-2.41
X5.21Y-2.48
X5.21Y-2.55
X5.21Y-4.36
X5.21Y-4.43
X5.21Y-4.5
X5.3Y-2.41
X5.3Y-2.48
X5.3Y-2.55
X5.3Y-4.36
X5.3Y-4.43
X5.3Y-4.5
X5.4Y-2.41
X5.4Y-2.48
X5.4Y-2.55
X5.4Y-4.36
X5.4Y-4.43
X5.4Y-4.5
X5.5Y-2.41
X5.5Y-2.48
X5.5Y-2.55
X5.5Y-4.36
X5.5Y-4.43
X5.5Y-4.5
X5.6Y-2.41
X5.6Y-2.48
X5.6Y-2.55
X5.6Y-4.36
X5.6Y-4.43
X5.6Y-4.5
X5.7Y-2.41
X5.7Y-2.48
X5.7Y-2.55
X5.7Y-4.36
X5.7Y-4.43
X5.7Y-4.5
X5.8Y-2.41
X5.8Y-2.48
X5.8Y-2.55
X5.8Y-4.36
X5.8Y-4.43
X5.8Y-4.5
X5.9Y-2.41
X5.9Y-2.48
X5.9Y-2.55
X5.9Y-4.36
X5.9Y-4.43
X5.9Y-4.5
X6.0Y-2.41
X6.0Y-2.48
X6.0Y-2.55
X6.0Y-4.36
X6.0Y-4.43
X6.0Y-4.5
X6.5Y-2.41
X6.5Y-2.48
X6.5Y-2.55
X6.5Y-4.36
X6.5Y-4.42
X6.5Y-4.49
X6.6Y-2.41
X6.6Y-2.48
X6.6Y-2.55
X6.6Y-4.36
X6.6Y-4.42
X6.6Y-4.49
X6.7Y-2.41
X6.7Y-2.48
X6.7Y-2.55
X6.7Y-4.36
X6.7Y-4.42
X6.7Y-4.49
X6.8Y-2.41
X6.8Y-2.48
X6.8Y-2.55
X6.8Y-4.36
X6.8Y-4.42
X6.8Y-4.49
X6.9Y-2.41
X6.9Y-2.48
X6.9Y-2.55
X6.9Y-4.36
X6.9Y-4.42
X6.9Y-4.49
X7.0Y-2.41
X7.0Y-2.48
X7.0Y-2.55
X7.0Y-4.36
X7.0Y-4.42
X7.0Y-4.49
T2
X6.78Y-3.29
X6.78Y-3.59
T3
X5.4997Y-2.9648
X5.4997Y-3.2601
X5.4997Y-3.6348
X5.4997Y-3.9301
X5.6965Y-2.9648
X5.6965Y-3.2601
X5.6965Y-3.6348
X5.6965Y-3.9301
X5.8934Y-2.9648
X5.8934Y-3.2601
X5.8934Y-3.6348
X5.8934Y-3.9301
X6.4839Y-2.9648
X6.4839Y-3.2601
X6.4839Y-3.6348
X6.4839Y-3.9301
T0
M30
