%TF.GenerationSoftware,KiCad,Pcbnew,(6.0.0)*%
%TF.CreationDate,2024-03-29T19:30:23+00:00*%
%TF.ProjectId,Power_2Relais_TRX_PA,506f7765-725f-4325-9265-6c6169735f54,rev?*%
%TF.SameCoordinates,Original*%
%TF.FileFunction,Soldermask,Top*%
%TF.FilePolarity,Negative*%
%FSLAX46Y46*%
G04 Gerber Fmt 4.6, Leading zero omitted, Abs format (unit mm)*
G04 Created by KiCad (PCBNEW (6.0.0)) date 2024-03-29 19:30:23*
%MOMM*%
%LPD*%
G01*
G04 APERTURE LIST*
%ADD10C,0.150000*%
%ADD11R,2.500000X2.500000*%
%ADD12O,2.500000X2.500000*%
%ADD13C,3.500000*%
%ADD14R,2.200000X2.200000*%
%ADD15O,2.200000X2.200000*%
G04 APERTURE END LIST*
D10*
X141224000Y-72390000D02*
X131826000Y-72390000D01*
X131826000Y-72390000D02*
X131826000Y-67818000D01*
X131826000Y-67818000D02*
X141224000Y-67818000D01*
X141224000Y-67818000D02*
X141224000Y-72390000D01*
G36*
X141224000Y-72390000D02*
G01*
X131826000Y-72390000D01*
X131826000Y-67818000D01*
X141224000Y-67818000D01*
X141224000Y-72390000D01*
G37*
X141224000Y-72390000D02*
X131826000Y-72390000D01*
X131826000Y-67818000D01*
X141224000Y-67818000D01*
X141224000Y-72390000D01*
X177800000Y-92964000D02*
X170942000Y-92964000D01*
X170942000Y-92964000D02*
X170942000Y-89408000D01*
X170942000Y-89408000D02*
X177800000Y-89408000D01*
X177800000Y-89408000D02*
X177800000Y-92964000D01*
G36*
X177800000Y-92964000D02*
G01*
X170942000Y-92964000D01*
X170942000Y-89408000D01*
X177800000Y-89408000D01*
X177800000Y-92964000D01*
G37*
X177800000Y-92964000D02*
X170942000Y-92964000D01*
X170942000Y-89408000D01*
X177800000Y-89408000D01*
X177800000Y-92964000D01*
X151892000Y-107442000D02*
X142494000Y-107442000D01*
X142494000Y-107442000D02*
X142494000Y-102870000D01*
X142494000Y-102870000D02*
X151892000Y-102870000D01*
X151892000Y-102870000D02*
X151892000Y-107442000D01*
G36*
X151892000Y-107442000D02*
G01*
X142494000Y-107442000D01*
X142494000Y-102870000D01*
X151892000Y-102870000D01*
X151892000Y-107442000D01*
G37*
X151892000Y-107442000D02*
X142494000Y-107442000D01*
X142494000Y-102870000D01*
X151892000Y-102870000D01*
X151892000Y-107442000D01*
X177800000Y-85344000D02*
X170942000Y-85344000D01*
X170942000Y-85344000D02*
X170942000Y-81788000D01*
X170942000Y-81788000D02*
X177800000Y-81788000D01*
X177800000Y-81788000D02*
X177800000Y-85344000D01*
G36*
X177800000Y-85344000D02*
G01*
X170942000Y-85344000D01*
X170942000Y-81788000D01*
X177800000Y-81788000D01*
X177800000Y-85344000D01*
G37*
X177800000Y-85344000D02*
X170942000Y-85344000D01*
X170942000Y-81788000D01*
X177800000Y-81788000D01*
X177800000Y-85344000D01*
X180340000Y-66802000D02*
X124714000Y-66802000D01*
X124714000Y-66802000D02*
X124714000Y-59182000D01*
X124714000Y-59182000D02*
X180340000Y-59182000D01*
X180340000Y-59182000D02*
X180340000Y-66802000D01*
G36*
X180340000Y-66802000D02*
G01*
X124714000Y-66802000D01*
X124714000Y-59182000D01*
X180340000Y-59182000D01*
X180340000Y-66802000D01*
G37*
X180340000Y-66802000D02*
X124714000Y-66802000D01*
X124714000Y-59182000D01*
X180340000Y-59182000D01*
X180340000Y-66802000D01*
X141224000Y-107442000D02*
X131826000Y-107442000D01*
X131826000Y-107442000D02*
X131826000Y-102870000D01*
X131826000Y-102870000D02*
X141224000Y-102870000D01*
X141224000Y-102870000D02*
X141224000Y-107442000D01*
G36*
X141224000Y-107442000D02*
G01*
X131826000Y-107442000D01*
X131826000Y-102870000D01*
X141224000Y-102870000D01*
X141224000Y-107442000D01*
G37*
X141224000Y-107442000D02*
X131826000Y-107442000D01*
X131826000Y-102870000D01*
X141224000Y-102870000D01*
X141224000Y-107442000D01*
X151892000Y-72390000D02*
X142494000Y-72390000D01*
X142494000Y-72390000D02*
X142494000Y-67818000D01*
X142494000Y-67818000D02*
X151892000Y-67818000D01*
X151892000Y-67818000D02*
X151892000Y-72390000D01*
G36*
X151892000Y-72390000D02*
G01*
X142494000Y-72390000D01*
X142494000Y-67818000D01*
X151892000Y-67818000D01*
X151892000Y-72390000D01*
G37*
X151892000Y-72390000D02*
X142494000Y-72390000D01*
X142494000Y-67818000D01*
X151892000Y-67818000D01*
X151892000Y-72390000D01*
X180340000Y-116332000D02*
X124714000Y-116332000D01*
X124714000Y-116332000D02*
X124714000Y-108458000D01*
X124714000Y-108458000D02*
X180340000Y-108458000D01*
X180340000Y-108458000D02*
X180340000Y-116332000D01*
G36*
X180340000Y-116332000D02*
G01*
X124714000Y-116332000D01*
X124714000Y-108458000D01*
X180340000Y-108458000D01*
X180340000Y-116332000D01*
G37*
X180340000Y-116332000D02*
X124714000Y-116332000D01*
X124714000Y-108458000D01*
X180340000Y-108458000D01*
X180340000Y-116332000D01*
D11*
%TO.C,RL1*%
X164691500Y-75306500D03*
D12*
X149691500Y-75306500D03*
X144691500Y-75306500D03*
X139691500Y-75306500D03*
X139691500Y-82806500D03*
X144691500Y-82806500D03*
X149691500Y-82806500D03*
X164691500Y-82806500D03*
%TD*%
D11*
%TO.C,RL2*%
X164691500Y-92324500D03*
D12*
X149691500Y-92324500D03*
X144691500Y-92324500D03*
X139691500Y-92324500D03*
X139691500Y-99824500D03*
X144691500Y-99824500D03*
X149691500Y-99824500D03*
X164691500Y-99824500D03*
%TD*%
D13*
%TO.C,REF\u002A\u002A*%
X158242000Y-111760000D03*
%TD*%
D14*
%TO.C,D1*%
X172212000Y-83566000D03*
D15*
X172212000Y-91186000D03*
%TD*%
D13*
%TO.C,REF\u002A\u002A*%
X158242000Y-63246000D03*
%TD*%
M02*
