%TF.GenerationSoftware,KiCad,Pcbnew,(6.0.0)*%
%TF.CreationDate,2024-03-29T19:30:21+00:00*%
%TF.ProjectId,Power_2Relais_TRX_PA,506f7765-725f-4325-9265-6c6169735f54,rev?*%
%TF.SameCoordinates,Original*%
%TF.FileFunction,Copper,L1,Top*%
%TF.FilePolarity,Positive*%
%FSLAX46Y46*%
G04 Gerber Fmt 4.6, Leading zero omitted, Abs format (unit mm)*
G04 Created by KiCad (PCBNEW (6.0.0)) date 2024-03-29 19:30:21*
%MOMM*%
%LPD*%
G01*
G04 APERTURE LIST*
%TA.AperFunction,NonConductor*%
%ADD10C,0.200000*%
%TD*%
%TA.AperFunction,ComponentPad*%
%ADD11R,2.500000X2.500000*%
%TD*%
%TA.AperFunction,ComponentPad*%
%ADD12O,2.500000X2.500000*%
%TD*%
%TA.AperFunction,ComponentPad*%
%ADD13R,2.200000X2.200000*%
%TD*%
%TA.AperFunction,ComponentPad*%
%ADD14O,2.200000X2.200000*%
%TD*%
%TA.AperFunction,ViaPad*%
%ADD15C,1.000000*%
%TD*%
%TA.AperFunction,Conductor*%
%ADD16C,0.200000*%
%TD*%
%TA.AperFunction,Conductor*%
%ADD17C,2.000000*%
%TD*%
G04 APERTURE END LIST*
D10*
X141224000Y-107188000D02*
X136652000Y-107188000D01*
X136652000Y-107188000D02*
X136652000Y-89662000D01*
X136652000Y-89662000D02*
X141224000Y-89662000D01*
X141224000Y-89662000D02*
X141224000Y-107188000D01*
G36*
X141224000Y-107188000D02*
G01*
X136652000Y-107188000D01*
X136652000Y-89662000D01*
X141224000Y-89662000D01*
X141224000Y-107188000D01*
G37*
X141224000Y-107188000D02*
X136652000Y-107188000D01*
X136652000Y-89662000D01*
X141224000Y-89662000D01*
X141224000Y-107188000D01*
X141224000Y-107442000D02*
X131826000Y-107442000D01*
X131826000Y-107442000D02*
X131826000Y-102870000D01*
X131826000Y-102870000D02*
X141224000Y-102870000D01*
X141224000Y-102870000D02*
X141224000Y-107442000D01*
G36*
X141224000Y-107442000D02*
G01*
X131826000Y-107442000D01*
X131826000Y-102870000D01*
X141224000Y-102870000D01*
X141224000Y-107442000D01*
G37*
X141224000Y-107442000D02*
X131826000Y-107442000D01*
X131826000Y-102870000D01*
X141224000Y-102870000D01*
X141224000Y-107442000D01*
X141224000Y-85598000D02*
X136652000Y-85598000D01*
X136652000Y-85598000D02*
X136652000Y-68072000D01*
X136652000Y-68072000D02*
X141224000Y-68072000D01*
X141224000Y-68072000D02*
X141224000Y-85598000D01*
G36*
X141224000Y-85598000D02*
G01*
X136652000Y-85598000D01*
X136652000Y-68072000D01*
X141224000Y-68072000D01*
X141224000Y-85598000D01*
G37*
X141224000Y-85598000D02*
X136652000Y-85598000D01*
X136652000Y-68072000D01*
X141224000Y-68072000D01*
X141224000Y-85598000D01*
X147066000Y-107188000D02*
X142494000Y-107188000D01*
X142494000Y-107188000D02*
X142494000Y-89662000D01*
X142494000Y-89662000D02*
X147066000Y-89662000D01*
X147066000Y-89662000D02*
X147066000Y-107188000D01*
G36*
X147066000Y-107188000D02*
G01*
X142494000Y-107188000D01*
X142494000Y-89662000D01*
X147066000Y-89662000D01*
X147066000Y-107188000D01*
G37*
X147066000Y-107188000D02*
X142494000Y-107188000D01*
X142494000Y-89662000D01*
X147066000Y-89662000D01*
X147066000Y-107188000D01*
X151892000Y-107442000D02*
X142494000Y-107442000D01*
X142494000Y-107442000D02*
X142494000Y-102870000D01*
X142494000Y-102870000D02*
X151892000Y-102870000D01*
X151892000Y-102870000D02*
X151892000Y-107442000D01*
G36*
X151892000Y-107442000D02*
G01*
X142494000Y-107442000D01*
X142494000Y-102870000D01*
X151892000Y-102870000D01*
X151892000Y-107442000D01*
G37*
X151892000Y-107442000D02*
X142494000Y-107442000D01*
X142494000Y-102870000D01*
X151892000Y-102870000D01*
X151892000Y-107442000D01*
X147066000Y-85598000D02*
X142494000Y-85598000D01*
X142494000Y-85598000D02*
X142494000Y-68072000D01*
X142494000Y-68072000D02*
X147066000Y-68072000D01*
X147066000Y-68072000D02*
X147066000Y-85598000D01*
G36*
X147066000Y-85598000D02*
G01*
X142494000Y-85598000D01*
X142494000Y-68072000D01*
X147066000Y-68072000D01*
X147066000Y-85598000D01*
G37*
X147066000Y-85598000D02*
X142494000Y-85598000D01*
X142494000Y-68072000D01*
X147066000Y-68072000D01*
X147066000Y-85598000D01*
X152908000Y-101600000D02*
X148336000Y-101600000D01*
X148336000Y-101600000D02*
X148336000Y-73660000D01*
X148336000Y-73660000D02*
X152908000Y-73660000D01*
X152908000Y-73660000D02*
X152908000Y-101600000D01*
G36*
X152908000Y-101600000D02*
G01*
X148336000Y-101600000D01*
X148336000Y-73660000D01*
X152908000Y-73660000D01*
X152908000Y-101600000D01*
G37*
X152908000Y-101600000D02*
X148336000Y-101600000D01*
X148336000Y-73660000D01*
X152908000Y-73660000D01*
X152908000Y-101600000D01*
X151892000Y-72390000D02*
X142494000Y-72390000D01*
X142494000Y-72390000D02*
X142494000Y-67818000D01*
X142494000Y-67818000D02*
X151892000Y-67818000D01*
X151892000Y-67818000D02*
X151892000Y-72390000D01*
G36*
X151892000Y-72390000D02*
G01*
X142494000Y-72390000D01*
X142494000Y-67818000D01*
X151892000Y-67818000D01*
X151892000Y-72390000D01*
G37*
X151892000Y-72390000D02*
X142494000Y-72390000D01*
X142494000Y-67818000D01*
X151892000Y-67818000D01*
X151892000Y-72390000D01*
X141224000Y-72390000D02*
X131826000Y-72390000D01*
X131826000Y-72390000D02*
X131826000Y-67818000D01*
X131826000Y-67818000D02*
X141224000Y-67818000D01*
X141224000Y-67818000D02*
X141224000Y-72390000D01*
G36*
X141224000Y-72390000D02*
G01*
X131826000Y-72390000D01*
X131826000Y-67818000D01*
X141224000Y-67818000D01*
X141224000Y-72390000D01*
G37*
X141224000Y-72390000D02*
X131826000Y-72390000D01*
X131826000Y-67818000D01*
X141224000Y-67818000D01*
X141224000Y-72390000D01*
X177800000Y-85344000D02*
X170942000Y-85344000D01*
X170942000Y-85344000D02*
X170942000Y-81788000D01*
X170942000Y-81788000D02*
X177800000Y-81788000D01*
X177800000Y-81788000D02*
X177800000Y-85344000D01*
G36*
X177800000Y-85344000D02*
G01*
X170942000Y-85344000D01*
X170942000Y-81788000D01*
X177800000Y-81788000D01*
X177800000Y-85344000D01*
G37*
X177800000Y-85344000D02*
X170942000Y-85344000D01*
X170942000Y-81788000D01*
X177800000Y-81788000D01*
X177800000Y-85344000D01*
D11*
%TO.P,RL1,1*%
%TO.N,+*%
X164691500Y-75306500D03*
D12*
%TO.P,RL1,2*%
%TO.N,Net-(RL1-Pad2)*%
X149691500Y-75306500D03*
%TO.P,RL1,3*%
%TO.N,Ant.*%
X144691500Y-75306500D03*
%TO.P,RL1,4*%
%TO.N,PAoutput*%
X139691500Y-75306500D03*
%TO.P,RL1,5*%
X139691500Y-82806500D03*
%TO.P,RL1,6*%
%TO.N,Ant.*%
X144691500Y-82806500D03*
%TO.P,RL1,7*%
%TO.N,Net-(RL1-Pad2)*%
X149691500Y-82806500D03*
%TO.P,RL1,8*%
%TO.N,-*%
X164691500Y-82806500D03*
%TD*%
D11*
%TO.P,RL2,1*%
%TO.N,+*%
X164691500Y-92324500D03*
D12*
%TO.P,RL2,2*%
%TO.N,Net-(RL1-Pad2)*%
X149691500Y-92324500D03*
%TO.P,RL2,3*%
%TO.N,TRX*%
X144691500Y-92324500D03*
%TO.P,RL2,4*%
%TO.N,PAinput*%
X139691500Y-92324500D03*
%TO.P,RL2,5*%
X139691500Y-99824500D03*
%TO.P,RL2,6*%
%TO.N,TRX*%
X144691500Y-99824500D03*
%TO.P,RL2,7*%
%TO.N,Net-(RL1-Pad2)*%
X149691500Y-99824500D03*
%TO.P,RL2,8*%
%TO.N,-*%
X164691500Y-99824500D03*
%TD*%
D13*
%TO.P,D1,1,K*%
%TO.N,+*%
X172212000Y-83566000D03*
D14*
%TO.P,D1,2,A*%
%TO.N,-*%
X172212000Y-91186000D03*
%TD*%
D15*
%TO.N,-*%
X127000000Y-64770000D03*
X170180000Y-61214000D03*
X167640000Y-61214000D03*
X149860000Y-62992000D03*
X139700000Y-110744000D03*
X137160000Y-110744000D03*
X149860000Y-61214000D03*
X144780000Y-64770000D03*
X167640000Y-112268000D03*
X144780000Y-112522000D03*
X127000000Y-62992000D03*
X132334000Y-110744000D03*
X132334000Y-62992000D03*
X170180000Y-114046000D03*
X137160000Y-62992000D03*
X149860000Y-64770000D03*
X149860000Y-110744000D03*
X129794000Y-62992000D03*
X165100000Y-114046000D03*
X127000000Y-110744000D03*
X172720000Y-114046000D03*
X175260000Y-64770000D03*
X167640000Y-64770000D03*
X170180000Y-112268000D03*
X142240000Y-64770000D03*
X147320000Y-110744000D03*
X127000000Y-114300000D03*
X132334000Y-61214000D03*
X144780000Y-114300000D03*
X152400000Y-62992000D03*
X142240000Y-62992000D03*
X132334000Y-64770000D03*
X137160000Y-112522000D03*
X165100000Y-64770000D03*
X152400000Y-114300000D03*
X175260000Y-114046000D03*
X139700000Y-62992000D03*
X149860000Y-114300000D03*
X137160000Y-114300000D03*
X137160000Y-61214000D03*
X134620000Y-112522000D03*
X142240000Y-112522000D03*
X129794000Y-112522000D03*
X172720000Y-64770000D03*
X129794000Y-110744000D03*
X167640000Y-114046000D03*
X129794000Y-61214000D03*
X147320000Y-112522000D03*
X127000000Y-112522000D03*
X127000000Y-61214000D03*
X175260000Y-61214000D03*
X144780000Y-110744000D03*
X142240000Y-61214000D03*
X132334000Y-114300000D03*
X129794000Y-114300000D03*
X137160000Y-64770000D03*
X175260000Y-110744000D03*
X172720000Y-110744000D03*
X139700000Y-114300000D03*
X149860000Y-112522000D03*
X129794000Y-64770000D03*
X172720000Y-62992000D03*
X165100000Y-112268000D03*
X177800000Y-114046000D03*
X134620000Y-61214000D03*
X139700000Y-61214000D03*
X175260000Y-62992000D03*
X134620000Y-64770000D03*
X172720000Y-112268000D03*
X177800000Y-62992000D03*
X177800000Y-61214000D03*
X167640000Y-62992000D03*
X134620000Y-62992000D03*
X177800000Y-112268000D03*
X165100000Y-61214000D03*
X152400000Y-61214000D03*
X144780000Y-62992000D03*
X165100000Y-62992000D03*
X147320000Y-114300000D03*
X147320000Y-61214000D03*
X175260000Y-112268000D03*
X147320000Y-62992000D03*
X132334000Y-112522000D03*
X172720000Y-61214000D03*
X144780000Y-61214000D03*
X134620000Y-114300000D03*
X177800000Y-110744000D03*
X167640000Y-110744000D03*
X142240000Y-114300000D03*
X142240000Y-110744000D03*
X134620000Y-110744000D03*
X152400000Y-112522000D03*
X170180000Y-62992000D03*
X165100000Y-110744000D03*
X170180000Y-110744000D03*
X152400000Y-64770000D03*
X170180000Y-64770000D03*
X177800000Y-64770000D03*
X147320000Y-64770000D03*
X152400000Y-110744000D03*
X139700000Y-64770000D03*
X139700000Y-112522000D03*
%TD*%
D16*
%TO.N,-*%
X171958000Y-90932000D02*
X172212000Y-91186000D01*
%TO.N,+*%
X164691500Y-92324500D02*
X164723500Y-92324500D01*
X172212000Y-82804000D02*
X172212000Y-83566000D01*
D17*
X164723500Y-92324500D02*
X172212000Y-84836000D01*
X170942000Y-81534000D02*
X172212000Y-82804000D01*
X172212000Y-84836000D02*
X172212000Y-83566000D01*
D16*
X172212000Y-85090000D02*
X172212000Y-84836000D01*
X164691500Y-92324500D02*
X164977500Y-92324500D01*
D17*
X164691500Y-75306500D02*
X170919000Y-81534000D01*
D16*
X163444500Y-92324500D02*
X164691500Y-92324500D01*
X170919000Y-81534000D02*
X170942000Y-81534000D01*
%TD*%
%TA.AperFunction,Conductor*%
%TO.N,-*%
G36*
X179282121Y-60202002D02*
G01*
X179328614Y-60255658D01*
X179340000Y-60308000D01*
X179340000Y-115206000D01*
X179319998Y-115274121D01*
X179266342Y-115320614D01*
X179214000Y-115332000D01*
X125840000Y-115332000D01*
X125771879Y-115311998D01*
X125725386Y-115258342D01*
X125714000Y-115206000D01*
X125714000Y-111745572D01*
X155486511Y-111745572D01*
X155504735Y-112076712D01*
X155562608Y-112403265D01*
X155563713Y-112406890D01*
X155563714Y-112406895D01*
X155639475Y-112655471D01*
X155659294Y-112720500D01*
X155793391Y-113023821D01*
X155795332Y-113027083D01*
X155961017Y-113305576D01*
X155961021Y-113305582D01*
X155962957Y-113308836D01*
X156165536Y-113571415D01*
X156398193Y-113807756D01*
X156657558Y-114014434D01*
X156939874Y-114188455D01*
X156943321Y-114190044D01*
X157237607Y-114325713D01*
X157237617Y-114325717D01*
X157241051Y-114327300D01*
X157244651Y-114328459D01*
X157244658Y-114328462D01*
X157553119Y-114427795D01*
X157553122Y-114427796D01*
X157556728Y-114428957D01*
X157560444Y-114429676D01*
X157560452Y-114429678D01*
X157878613Y-114491234D01*
X157878622Y-114491235D01*
X157882332Y-114491953D01*
X157886108Y-114492220D01*
X157886113Y-114492221D01*
X157984748Y-114499205D01*
X158144279Y-114510500D01*
X158325386Y-114510500D01*
X158327252Y-114510388D01*
X158327269Y-114510387D01*
X158569262Y-114495798D01*
X158569266Y-114495798D01*
X158573040Y-114495570D01*
X158576762Y-114494890D01*
X158576764Y-114494890D01*
X158650632Y-114481399D01*
X158899285Y-114435987D01*
X159216009Y-114337641D01*
X159518625Y-114201958D01*
X159802748Y-114030902D01*
X159805732Y-114028575D01*
X159805739Y-114028570D01*
X160061268Y-113829287D01*
X160061270Y-113829285D01*
X160064263Y-113826951D01*
X160299382Y-113593060D01*
X160504699Y-113332617D01*
X160677240Y-113049393D01*
X160732021Y-112928909D01*
X160812937Y-112750945D01*
X160812940Y-112750937D01*
X160814506Y-112747493D01*
X160914509Y-112431288D01*
X160975799Y-112105359D01*
X160997489Y-111774428D01*
X160979265Y-111443288D01*
X160921392Y-111116735D01*
X160912852Y-111088712D01*
X160825815Y-110803139D01*
X160824706Y-110799500D01*
X160690609Y-110496179D01*
X160625004Y-110385907D01*
X160522983Y-110214424D01*
X160522979Y-110214418D01*
X160521043Y-110211164D01*
X160318464Y-109948585D01*
X160085807Y-109712244D01*
X159826442Y-109505566D01*
X159544126Y-109331545D01*
X159506173Y-109314049D01*
X159246393Y-109194287D01*
X159246383Y-109194283D01*
X159242949Y-109192700D01*
X159239349Y-109191541D01*
X159239342Y-109191538D01*
X158930881Y-109092205D01*
X158930878Y-109092204D01*
X158927272Y-109091043D01*
X158923556Y-109090324D01*
X158923548Y-109090322D01*
X158605387Y-109028766D01*
X158605378Y-109028765D01*
X158601668Y-109028047D01*
X158597892Y-109027780D01*
X158597887Y-109027779D01*
X158499252Y-109020795D01*
X158339721Y-109009500D01*
X158158614Y-109009500D01*
X158156748Y-109009612D01*
X158156731Y-109009613D01*
X157914738Y-109024202D01*
X157914734Y-109024202D01*
X157910960Y-109024430D01*
X157907238Y-109025110D01*
X157907236Y-109025110D01*
X157891155Y-109028047D01*
X157584715Y-109084013D01*
X157267991Y-109182359D01*
X156965375Y-109318042D01*
X156681252Y-109489098D01*
X156678268Y-109491425D01*
X156678261Y-109491430D01*
X156657103Y-109507931D01*
X156419737Y-109693049D01*
X156184618Y-109926940D01*
X155979301Y-110187383D01*
X155806760Y-110470607D01*
X155795133Y-110496179D01*
X155671063Y-110769055D01*
X155671060Y-110769063D01*
X155669494Y-110772507D01*
X155569491Y-111088712D01*
X155508201Y-111414641D01*
X155486511Y-111745572D01*
X125714000Y-111745572D01*
X125714000Y-107388021D01*
X130722315Y-107388021D01*
X130723627Y-107416365D01*
X130725865Y-107464718D01*
X130726000Y-107470544D01*
X130726000Y-107494447D01*
X130726284Y-107497419D01*
X130726284Y-107497429D01*
X130728119Y-107516661D01*
X130728553Y-107522800D01*
X130732020Y-107597696D01*
X130736273Y-107615346D01*
X130739208Y-107632885D01*
X130740932Y-107650951D01*
X130742620Y-107656705D01*
X130762041Y-107722909D01*
X130763629Y-107728855D01*
X130781198Y-107801754D01*
X130783680Y-107807214D01*
X130783682Y-107807218D01*
X130788705Y-107818263D01*
X130794911Y-107834948D01*
X130800019Y-107852363D01*
X130802768Y-107857700D01*
X130802769Y-107857703D01*
X130834359Y-107919039D01*
X130837044Y-107924580D01*
X130865593Y-107987371D01*
X130865595Y-107987375D01*
X130868076Y-107992831D01*
X130878574Y-108007630D01*
X130887815Y-108022830D01*
X130893379Y-108033633D01*
X130896127Y-108038968D01*
X130899831Y-108043683D01*
X130899832Y-108043685D01*
X130942454Y-108097944D01*
X130946127Y-108102864D01*
X130989517Y-108164032D01*
X130993846Y-108168176D01*
X130993852Y-108168183D01*
X131002625Y-108176581D01*
X131014573Y-108189757D01*
X131025787Y-108204032D01*
X131030317Y-108207963D01*
X131030318Y-108207964D01*
X131082430Y-108253185D01*
X131086962Y-108257316D01*
X131141142Y-108309181D01*
X131146180Y-108312434D01*
X131156386Y-108319024D01*
X131170613Y-108329706D01*
X131184321Y-108341601D01*
X131249224Y-108379149D01*
X131254468Y-108382356D01*
X131312433Y-108419784D01*
X131312439Y-108419787D01*
X131317477Y-108423040D01*
X131323039Y-108425282D01*
X131323040Y-108425282D01*
X131334309Y-108429824D01*
X131350302Y-108437625D01*
X131360807Y-108443702D01*
X131360814Y-108443705D01*
X131366008Y-108446710D01*
X131419343Y-108465231D01*
X131436860Y-108471314D01*
X131442625Y-108473476D01*
X131506600Y-108499259D01*
X131506605Y-108499260D01*
X131512162Y-108501500D01*
X131529973Y-108504978D01*
X131547152Y-108509614D01*
X131564293Y-108515566D01*
X131570226Y-108516426D01*
X131570229Y-108516427D01*
X131611845Y-108522461D01*
X131638520Y-108526328D01*
X131644562Y-108527355D01*
X131681532Y-108534575D01*
X131713725Y-108540862D01*
X131713728Y-108540862D01*
X131718171Y-108541730D01*
X131723691Y-108542000D01*
X131737520Y-108542000D01*
X131755598Y-108543304D01*
X131762427Y-108544294D01*
X131766082Y-108544824D01*
X131766083Y-108544824D01*
X131772021Y-108545685D01*
X131848719Y-108542135D01*
X131854544Y-108542000D01*
X141135520Y-108542000D01*
X141153598Y-108543304D01*
X141160427Y-108544294D01*
X141164082Y-108544824D01*
X141164083Y-108544824D01*
X141170021Y-108545685D01*
X141246719Y-108542135D01*
X141252544Y-108542000D01*
X141276447Y-108542000D01*
X141279419Y-108541716D01*
X141279429Y-108541716D01*
X141298661Y-108539881D01*
X141304800Y-108539447D01*
X141311068Y-108539157D01*
X141379696Y-108535980D01*
X141397346Y-108531727D01*
X141414885Y-108528792D01*
X141415224Y-108528760D01*
X141432951Y-108527068D01*
X141439527Y-108525139D01*
X141504909Y-108505959D01*
X141510855Y-108504371D01*
X141532066Y-108499259D01*
X141583754Y-108486802D01*
X141589214Y-108484320D01*
X141589218Y-108484318D01*
X141595620Y-108481407D01*
X141600267Y-108479293D01*
X141616948Y-108473089D01*
X141634363Y-108467981D01*
X141639700Y-108465232D01*
X141639703Y-108465231D01*
X141701039Y-108433641D01*
X141706580Y-108430956D01*
X141769371Y-108402407D01*
X141769375Y-108402405D01*
X141774831Y-108399924D01*
X141788569Y-108390179D01*
X141855700Y-108367082D01*
X141929814Y-108387099D01*
X141985477Y-108423040D01*
X141991039Y-108425282D01*
X141991040Y-108425282D01*
X142002309Y-108429824D01*
X142018302Y-108437625D01*
X142028807Y-108443702D01*
X142028814Y-108443705D01*
X142034008Y-108446710D01*
X142087343Y-108465231D01*
X142104860Y-108471314D01*
X142110625Y-108473476D01*
X142174600Y-108499259D01*
X142174605Y-108499260D01*
X142180162Y-108501500D01*
X142197973Y-108504978D01*
X142215152Y-108509614D01*
X142232293Y-108515566D01*
X142238226Y-108516426D01*
X142238229Y-108516427D01*
X142279845Y-108522461D01*
X142306520Y-108526328D01*
X142312562Y-108527355D01*
X142349532Y-108534575D01*
X142381725Y-108540862D01*
X142381728Y-108540862D01*
X142386171Y-108541730D01*
X142391691Y-108542000D01*
X142405520Y-108542000D01*
X142423598Y-108543304D01*
X142430427Y-108544294D01*
X142434082Y-108544824D01*
X142434083Y-108544824D01*
X142440021Y-108545685D01*
X142516719Y-108542135D01*
X142522544Y-108542000D01*
X151803520Y-108542000D01*
X151821598Y-108543304D01*
X151828427Y-108544294D01*
X151832082Y-108544824D01*
X151832083Y-108544824D01*
X151838021Y-108545685D01*
X151914719Y-108542135D01*
X151920544Y-108542000D01*
X151944447Y-108542000D01*
X151947419Y-108541716D01*
X151947429Y-108541716D01*
X151966661Y-108539881D01*
X151972800Y-108539447D01*
X151979068Y-108539157D01*
X152047696Y-108535980D01*
X152065346Y-108531727D01*
X152082885Y-108528792D01*
X152083224Y-108528760D01*
X152100951Y-108527068D01*
X152107527Y-108525139D01*
X152172909Y-108505959D01*
X152178855Y-108504371D01*
X152200066Y-108499259D01*
X152251754Y-108486802D01*
X152257214Y-108484320D01*
X152257218Y-108484318D01*
X152263620Y-108481407D01*
X152268267Y-108479293D01*
X152284948Y-108473089D01*
X152302363Y-108467981D01*
X152307700Y-108465232D01*
X152307703Y-108465231D01*
X152369039Y-108433641D01*
X152374580Y-108430956D01*
X152437371Y-108402407D01*
X152437375Y-108402405D01*
X152442831Y-108399924D01*
X152457630Y-108389426D01*
X152472830Y-108380185D01*
X152483633Y-108374621D01*
X152483636Y-108374619D01*
X152488968Y-108371873D01*
X152495068Y-108367082D01*
X152532510Y-108337670D01*
X152547954Y-108325539D01*
X152552864Y-108321873D01*
X152614032Y-108278483D01*
X152618176Y-108274154D01*
X152618183Y-108274148D01*
X152626581Y-108265375D01*
X152639757Y-108253427D01*
X152654032Y-108242213D01*
X152703185Y-108185570D01*
X152707316Y-108181038D01*
X152759181Y-108126858D01*
X152769024Y-108111614D01*
X152779706Y-108097387D01*
X152782328Y-108094366D01*
X152791601Y-108083679D01*
X152829149Y-108018776D01*
X152832356Y-108013532D01*
X152869784Y-107955567D01*
X152869788Y-107955560D01*
X152873040Y-107950523D01*
X152875282Y-107944960D01*
X152879824Y-107933691D01*
X152887625Y-107917698D01*
X152893702Y-107907193D01*
X152893705Y-107907186D01*
X152896710Y-107901992D01*
X152921314Y-107831139D01*
X152923476Y-107825375D01*
X152949259Y-107761400D01*
X152949260Y-107761395D01*
X152951500Y-107755838D01*
X152954978Y-107738027D01*
X152959614Y-107720846D01*
X152963598Y-107709373D01*
X152965566Y-107703707D01*
X152976328Y-107629480D01*
X152977355Y-107623438D01*
X152991730Y-107549829D01*
X152992000Y-107544309D01*
X152992000Y-107530480D01*
X152993304Y-107512399D01*
X152994824Y-107501918D01*
X152994824Y-107501917D01*
X152995685Y-107495979D01*
X152992135Y-107419281D01*
X152992000Y-107413456D01*
X152992000Y-102958480D01*
X152993304Y-102940399D01*
X152994824Y-102929918D01*
X152994824Y-102929917D01*
X152995685Y-102923979D01*
X152992135Y-102847281D01*
X152992000Y-102841456D01*
X152992000Y-102817553D01*
X152991960Y-102817137D01*
X153008597Y-102748564D01*
X153059981Y-102699572D01*
X153105748Y-102686137D01*
X153106546Y-102686061D01*
X153110982Y-102685638D01*
X153110986Y-102685637D01*
X153116951Y-102685068D01*
X153125664Y-102682512D01*
X153188909Y-102663959D01*
X153194855Y-102662371D01*
X153204263Y-102660104D01*
X153267754Y-102644802D01*
X153273214Y-102642320D01*
X153273218Y-102642318D01*
X153279620Y-102639407D01*
X153284267Y-102637293D01*
X153300948Y-102631089D01*
X153318363Y-102625981D01*
X153323700Y-102623232D01*
X153323703Y-102623231D01*
X153385039Y-102591641D01*
X153390580Y-102588956D01*
X153453371Y-102560407D01*
X153453375Y-102560405D01*
X153458831Y-102557924D01*
X153473630Y-102547426D01*
X153488830Y-102538185D01*
X153499633Y-102532621D01*
X153499636Y-102532619D01*
X153504968Y-102529873D01*
X153563954Y-102483539D01*
X153568864Y-102479873D01*
X153630032Y-102436483D01*
X153634176Y-102432154D01*
X153634183Y-102432148D01*
X153642581Y-102423375D01*
X153655757Y-102411427D01*
X153670032Y-102400213D01*
X153673964Y-102395682D01*
X153719185Y-102343570D01*
X153723316Y-102339038D01*
X153775181Y-102284858D01*
X153785024Y-102269614D01*
X153795706Y-102255387D01*
X153798328Y-102252366D01*
X153807601Y-102241679D01*
X153845149Y-102176776D01*
X153848356Y-102171532D01*
X153885784Y-102113567D01*
X153885788Y-102113560D01*
X153889040Y-102108523D01*
X153891282Y-102102960D01*
X153895824Y-102091691D01*
X153903625Y-102075698D01*
X153909702Y-102065193D01*
X153909705Y-102065186D01*
X153912710Y-102059992D01*
X153937314Y-101989139D01*
X153939476Y-101983375D01*
X153965259Y-101919400D01*
X153965260Y-101919395D01*
X153967500Y-101913838D01*
X153970978Y-101896027D01*
X153975614Y-101878846D01*
X153979598Y-101867373D01*
X153981566Y-101861707D01*
X153985236Y-101836400D01*
X153992327Y-101787488D01*
X153993355Y-101781438D01*
X154007730Y-101707829D01*
X154008000Y-101702309D01*
X154008000Y-101688480D01*
X154009304Y-101670399D01*
X154010824Y-101659918D01*
X154010824Y-101659917D01*
X154011685Y-101653979D01*
X154008135Y-101577281D01*
X154008000Y-101571456D01*
X154008000Y-100579239D01*
X163391641Y-100579239D01*
X163393890Y-100585471D01*
X163468389Y-100707041D01*
X163474189Y-100715025D01*
X163621515Y-100887521D01*
X163628479Y-100894485D01*
X163800975Y-101041811D01*
X163808959Y-101047611D01*
X163926053Y-101119367D01*
X163939666Y-101123050D01*
X163940162Y-101122452D01*
X163941500Y-101115969D01*
X163941500Y-101110718D01*
X165441500Y-101110718D01*
X165445473Y-101124249D01*
X165446239Y-101124359D01*
X165452471Y-101122110D01*
X165574041Y-101047611D01*
X165582025Y-101041811D01*
X165754521Y-100894485D01*
X165761485Y-100887521D01*
X165908811Y-100715025D01*
X165914611Y-100707041D01*
X165986367Y-100589947D01*
X165990050Y-100576334D01*
X165989452Y-100575838D01*
X165982969Y-100574500D01*
X165459615Y-100574500D01*
X165444376Y-100578975D01*
X165443171Y-100580365D01*
X165441500Y-100588048D01*
X165441500Y-101110718D01*
X163941500Y-101110718D01*
X163941500Y-100592615D01*
X163937025Y-100577376D01*
X163935635Y-100576171D01*
X163927952Y-100574500D01*
X163405282Y-100574500D01*
X163391751Y-100578473D01*
X163391641Y-100579239D01*
X154008000Y-100579239D01*
X154008000Y-99072666D01*
X163392950Y-99072666D01*
X163393548Y-99073162D01*
X163400031Y-99074500D01*
X163923385Y-99074500D01*
X163938624Y-99070025D01*
X163939829Y-99068635D01*
X163941500Y-99060952D01*
X163941500Y-99056385D01*
X165441500Y-99056385D01*
X165445975Y-99071624D01*
X165447365Y-99072829D01*
X165455048Y-99074500D01*
X165977718Y-99074500D01*
X165991249Y-99070527D01*
X165991359Y-99069761D01*
X165989110Y-99063529D01*
X165914611Y-98941959D01*
X165908811Y-98933975D01*
X165761485Y-98761479D01*
X165754521Y-98754515D01*
X165582025Y-98607189D01*
X165574041Y-98601389D01*
X165456947Y-98529633D01*
X165443334Y-98525950D01*
X165442838Y-98526548D01*
X165441500Y-98533031D01*
X165441500Y-99056385D01*
X163941500Y-99056385D01*
X163941500Y-98538282D01*
X163937527Y-98524751D01*
X163936761Y-98524641D01*
X163930529Y-98526890D01*
X163808959Y-98601389D01*
X163800975Y-98607189D01*
X163628479Y-98754515D01*
X163621515Y-98761479D01*
X163474189Y-98933975D01*
X163468389Y-98941959D01*
X163396633Y-99059053D01*
X163392950Y-99072666D01*
X154008000Y-99072666D01*
X154008000Y-92270496D01*
X162340314Y-92270496D01*
X162350023Y-92480267D01*
X162399224Y-92684418D01*
X162401706Y-92689876D01*
X162401707Y-92689880D01*
X162429701Y-92751449D01*
X162441000Y-92803600D01*
X162441000Y-93632316D01*
X162451734Y-93752587D01*
X162507759Y-93947970D01*
X162601927Y-94128096D01*
X162730391Y-94285609D01*
X162887904Y-94414073D01*
X163068030Y-94508241D01*
X163263413Y-94564266D01*
X163295045Y-94567089D01*
X163380891Y-94574751D01*
X163380897Y-94574751D01*
X163383684Y-94575000D01*
X165999316Y-94575000D01*
X166002103Y-94574751D01*
X166002109Y-94574751D01*
X166087955Y-94567089D01*
X166119587Y-94564266D01*
X166314970Y-94508241D01*
X166495096Y-94414073D01*
X166652609Y-94285609D01*
X166781073Y-94128096D01*
X166875241Y-93947970D01*
X166931266Y-93752587D01*
X166942000Y-93632316D01*
X166942000Y-92987325D01*
X166962002Y-92919204D01*
X166978905Y-92898230D01*
X167936394Y-91940741D01*
X171087982Y-91940741D01*
X171090228Y-91946965D01*
X171112934Y-91984019D01*
X171119012Y-91992323D01*
X171258025Y-92152804D01*
X171265387Y-92160014D01*
X171428736Y-92295628D01*
X171437183Y-92301543D01*
X171446359Y-92306905D01*
X171460046Y-92310301D01*
X171460965Y-92309145D01*
X171462000Y-92303849D01*
X171462000Y-92296158D01*
X172962000Y-92296158D01*
X172965751Y-92308931D01*
X172974284Y-92305511D01*
X173084742Y-92226722D01*
X173092603Y-92220078D01*
X173242995Y-92070210D01*
X173249672Y-92062365D01*
X173329903Y-91950712D01*
X173334290Y-91938208D01*
X173325273Y-91936000D01*
X172980115Y-91936000D01*
X172964876Y-91940475D01*
X172963671Y-91941865D01*
X172962000Y-91949548D01*
X172962000Y-92296158D01*
X171462000Y-92296158D01*
X171462000Y-91954115D01*
X171457525Y-91938876D01*
X171456135Y-91937671D01*
X171448452Y-91936000D01*
X171101623Y-91936000D01*
X171088092Y-91939973D01*
X171087982Y-91940741D01*
X167936394Y-91940741D01*
X169443089Y-90434046D01*
X171090495Y-90434046D01*
X171098918Y-90436000D01*
X171443885Y-90436000D01*
X171459124Y-90431525D01*
X171460329Y-90430135D01*
X171462000Y-90422452D01*
X171462000Y-90417885D01*
X172962000Y-90417885D01*
X172966475Y-90433124D01*
X172967865Y-90434329D01*
X172975548Y-90436000D01*
X173321408Y-90436000D01*
X173334918Y-90432033D01*
X173332112Y-90424544D01*
X173291246Y-90361375D01*
X173284955Y-90353206D01*
X173142068Y-90196176D01*
X173134535Y-90189151D01*
X172971995Y-90060785D01*
X172964093Y-90059027D01*
X172962714Y-90060852D01*
X172962000Y-90064756D01*
X172962000Y-90417885D01*
X171462000Y-90417885D01*
X171462000Y-90073974D01*
X171458374Y-90061626D01*
X171449306Y-90065390D01*
X171314098Y-90166907D01*
X171306391Y-90173750D01*
X171159709Y-90327243D01*
X171153223Y-90335253D01*
X171094707Y-90421034D01*
X171090495Y-90434046D01*
X169443089Y-90434046D01*
X173396229Y-86480905D01*
X173458541Y-86446879D01*
X173485324Y-86444000D01*
X177711520Y-86444000D01*
X177729598Y-86445304D01*
X177736427Y-86446294D01*
X177740082Y-86446824D01*
X177740083Y-86446824D01*
X177746021Y-86447685D01*
X177822719Y-86444135D01*
X177828544Y-86444000D01*
X177852447Y-86444000D01*
X177855419Y-86443716D01*
X177855429Y-86443716D01*
X177874661Y-86441881D01*
X177880800Y-86441447D01*
X177887068Y-86441157D01*
X177955696Y-86437980D01*
X177973346Y-86433727D01*
X177990885Y-86430792D01*
X177991224Y-86430760D01*
X178008951Y-86429068D01*
X178015527Y-86427139D01*
X178080909Y-86407959D01*
X178086855Y-86406371D01*
X178096263Y-86404104D01*
X178159754Y-86388802D01*
X178165214Y-86386320D01*
X178165218Y-86386318D01*
X178171620Y-86383407D01*
X178176267Y-86381293D01*
X178192948Y-86375089D01*
X178210363Y-86369981D01*
X178215700Y-86367232D01*
X178215703Y-86367231D01*
X178277039Y-86335641D01*
X178282580Y-86332956D01*
X178345371Y-86304407D01*
X178345375Y-86304405D01*
X178350831Y-86301924D01*
X178365630Y-86291426D01*
X178380830Y-86282185D01*
X178391633Y-86276621D01*
X178391636Y-86276619D01*
X178396968Y-86273873D01*
X178455954Y-86227539D01*
X178460864Y-86223873D01*
X178522032Y-86180483D01*
X178526176Y-86176154D01*
X178526183Y-86176148D01*
X178534581Y-86167375D01*
X178547757Y-86155427D01*
X178562032Y-86144213D01*
X178611185Y-86087570D01*
X178615316Y-86083038D01*
X178667181Y-86028858D01*
X178670434Y-86023820D01*
X178677024Y-86013614D01*
X178687706Y-85999387D01*
X178690328Y-85996366D01*
X178699601Y-85985679D01*
X178737149Y-85920776D01*
X178740356Y-85915532D01*
X178777784Y-85857567D01*
X178777788Y-85857560D01*
X178781040Y-85852523D01*
X178783282Y-85846960D01*
X178787824Y-85835691D01*
X178795625Y-85819698D01*
X178801702Y-85809193D01*
X178801705Y-85809186D01*
X178804710Y-85803992D01*
X178829314Y-85733139D01*
X178831476Y-85727375D01*
X178857259Y-85663400D01*
X178857260Y-85663395D01*
X178859500Y-85657838D01*
X178862978Y-85640027D01*
X178867614Y-85622846D01*
X178871598Y-85611373D01*
X178873566Y-85605707D01*
X178884328Y-85531480D01*
X178885355Y-85525438D01*
X178899730Y-85451829D01*
X178900000Y-85446309D01*
X178900000Y-85432480D01*
X178901304Y-85414399D01*
X178902824Y-85403918D01*
X178902824Y-85403917D01*
X178903685Y-85397979D01*
X178900135Y-85321281D01*
X178900000Y-85315456D01*
X178900000Y-81876480D01*
X178901304Y-81858399D01*
X178902824Y-81847918D01*
X178902824Y-81847917D01*
X178903685Y-81841979D01*
X178900135Y-81765281D01*
X178900000Y-81759456D01*
X178900000Y-81735553D01*
X178897881Y-81713339D01*
X178897447Y-81707200D01*
X178894257Y-81638296D01*
X178893980Y-81632304D01*
X178889727Y-81614654D01*
X178886792Y-81597115D01*
X178886760Y-81596776D01*
X178885068Y-81579049D01*
X178883139Y-81572473D01*
X178863959Y-81507091D01*
X178862371Y-81501145D01*
X178846207Y-81434077D01*
X178844802Y-81428246D01*
X178837293Y-81411733D01*
X178831089Y-81395052D01*
X178825981Y-81377637D01*
X178823231Y-81372297D01*
X178791641Y-81310961D01*
X178788956Y-81305420D01*
X178760407Y-81242629D01*
X178760405Y-81242625D01*
X178757924Y-81237169D01*
X178747426Y-81222370D01*
X178738185Y-81207170D01*
X178732621Y-81196367D01*
X178732619Y-81196364D01*
X178729873Y-81191032D01*
X178683539Y-81132046D01*
X178679873Y-81127136D01*
X178636483Y-81065968D01*
X178632154Y-81061824D01*
X178632148Y-81061817D01*
X178623375Y-81053419D01*
X178611427Y-81040243D01*
X178600213Y-81025968D01*
X178543570Y-80976815D01*
X178539038Y-80972684D01*
X178484858Y-80920819D01*
X178469614Y-80910976D01*
X178455387Y-80900294D01*
X178452366Y-80897672D01*
X178441679Y-80888399D01*
X178376776Y-80850851D01*
X178371532Y-80847644D01*
X178313567Y-80810216D01*
X178313560Y-80810212D01*
X178308523Y-80806960D01*
X178302960Y-80804718D01*
X178291691Y-80800176D01*
X178275698Y-80792375D01*
X178265193Y-80786298D01*
X178265186Y-80786295D01*
X178259992Y-80783290D01*
X178189139Y-80758686D01*
X178183375Y-80756524D01*
X178119400Y-80730741D01*
X178119395Y-80730740D01*
X178113838Y-80728500D01*
X178096027Y-80725022D01*
X178078846Y-80720386D01*
X178061707Y-80714434D01*
X178055774Y-80713574D01*
X178055771Y-80713573D01*
X178014155Y-80707539D01*
X177987480Y-80703672D01*
X177981438Y-80702645D01*
X177932873Y-80693161D01*
X177912275Y-80689138D01*
X177912272Y-80689138D01*
X177907829Y-80688270D01*
X177902309Y-80688000D01*
X177888480Y-80688000D01*
X177870402Y-80686696D01*
X177863573Y-80685706D01*
X177859918Y-80685176D01*
X177859917Y-80685176D01*
X177853979Y-80684315D01*
X177777282Y-80687865D01*
X177771456Y-80688000D01*
X172977324Y-80688000D01*
X172909203Y-80667998D01*
X172888229Y-80651095D01*
X172305535Y-80068401D01*
X172303860Y-80066947D01*
X172303853Y-80066941D01*
X172149567Y-79933059D01*
X172149568Y-79933059D01*
X172146209Y-79930145D01*
X172144951Y-79929333D01*
X172133735Y-79919600D01*
X166978905Y-74764771D01*
X166944879Y-74702459D01*
X166942000Y-74675676D01*
X166942000Y-73998684D01*
X166931266Y-73878413D01*
X166875241Y-73683030D01*
X166801950Y-73542838D01*
X166784029Y-73508558D01*
X166784028Y-73508557D01*
X166781073Y-73502904D01*
X166773328Y-73493407D01*
X166656638Y-73350331D01*
X166652609Y-73345391D01*
X166587887Y-73292605D01*
X166500040Y-73220959D01*
X166500039Y-73220958D01*
X166495096Y-73216927D01*
X166464985Y-73201185D01*
X166419526Y-73177420D01*
X166314970Y-73122759D01*
X166119587Y-73066734D01*
X166087955Y-73063911D01*
X166002109Y-73056249D01*
X166002103Y-73056249D01*
X165999316Y-73056000D01*
X163383684Y-73056000D01*
X163380897Y-73056249D01*
X163380891Y-73056249D01*
X163295045Y-73063911D01*
X163263413Y-73066734D01*
X163068030Y-73122759D01*
X162963474Y-73177420D01*
X162918016Y-73201185D01*
X162887904Y-73216927D01*
X162882961Y-73220958D01*
X162882960Y-73220959D01*
X162795113Y-73292605D01*
X162730391Y-73345391D01*
X162726362Y-73350331D01*
X162609673Y-73493407D01*
X162601927Y-73502904D01*
X162598972Y-73508557D01*
X162598971Y-73508558D01*
X162581050Y-73542838D01*
X162507759Y-73683030D01*
X162451734Y-73878413D01*
X162441000Y-73998684D01*
X162441000Y-76614316D01*
X162451734Y-76734587D01*
X162507759Y-76929970D01*
X162601927Y-77110096D01*
X162730391Y-77267609D01*
X162887904Y-77396073D01*
X163068030Y-77490241D01*
X163263413Y-77546266D01*
X163295045Y-77549089D01*
X163380891Y-77556751D01*
X163380897Y-77556751D01*
X163383684Y-77557000D01*
X164060675Y-77557000D01*
X164128796Y-77577002D01*
X164149770Y-77593905D01*
X169555465Y-82999599D01*
X169628839Y-83063269D01*
X169711432Y-83134940D01*
X169711437Y-83134944D01*
X169714792Y-83137855D01*
X169716051Y-83138668D01*
X169727264Y-83148399D01*
X169805095Y-83226230D01*
X169839121Y-83288542D01*
X169842000Y-83315325D01*
X169842000Y-84324676D01*
X169821998Y-84392797D01*
X169805095Y-84413771D01*
X164181771Y-90037095D01*
X164119459Y-90071121D01*
X164092676Y-90074000D01*
X163383684Y-90074000D01*
X163380897Y-90074249D01*
X163380891Y-90074249D01*
X163295045Y-90081911D01*
X163263413Y-90084734D01*
X163068030Y-90140759D01*
X162887904Y-90234927D01*
X162730391Y-90363391D01*
X162726362Y-90368331D01*
X162672536Y-90434329D01*
X162601927Y-90520904D01*
X162507759Y-90701030D01*
X162451734Y-90896413D01*
X162441000Y-91016684D01*
X162441000Y-91838246D01*
X162434028Y-91879579D01*
X162409327Y-91950712D01*
X162370447Y-92062674D01*
X162369586Y-92068609D01*
X162369586Y-92068611D01*
X162357379Y-92152804D01*
X162340314Y-92270496D01*
X154008000Y-92270496D01*
X154008000Y-83561239D01*
X163391641Y-83561239D01*
X163393890Y-83567471D01*
X163468389Y-83689041D01*
X163474189Y-83697025D01*
X163621515Y-83869521D01*
X163628479Y-83876485D01*
X163800975Y-84023811D01*
X163808959Y-84029611D01*
X163926053Y-84101367D01*
X163939666Y-84105050D01*
X163940162Y-84104452D01*
X163941500Y-84097969D01*
X163941500Y-84092718D01*
X165441500Y-84092718D01*
X165445473Y-84106249D01*
X165446239Y-84106359D01*
X165452471Y-84104110D01*
X165574041Y-84029611D01*
X165582025Y-84023811D01*
X165754521Y-83876485D01*
X165761485Y-83869521D01*
X165908811Y-83697025D01*
X165914611Y-83689041D01*
X165986367Y-83571947D01*
X165990050Y-83558334D01*
X165989452Y-83557838D01*
X165982969Y-83556500D01*
X165459615Y-83556500D01*
X165444376Y-83560975D01*
X165443171Y-83562365D01*
X165441500Y-83570048D01*
X165441500Y-84092718D01*
X163941500Y-84092718D01*
X163941500Y-83574615D01*
X163937025Y-83559376D01*
X163935635Y-83558171D01*
X163927952Y-83556500D01*
X163405282Y-83556500D01*
X163391751Y-83560473D01*
X163391641Y-83561239D01*
X154008000Y-83561239D01*
X154008000Y-82054666D01*
X163392950Y-82054666D01*
X163393548Y-82055162D01*
X163400031Y-82056500D01*
X163923385Y-82056500D01*
X163938624Y-82052025D01*
X163939829Y-82050635D01*
X163941500Y-82042952D01*
X163941500Y-82038385D01*
X165441500Y-82038385D01*
X165445975Y-82053624D01*
X165447365Y-82054829D01*
X165455048Y-82056500D01*
X165977718Y-82056500D01*
X165991249Y-82052527D01*
X165991359Y-82051761D01*
X165989110Y-82045529D01*
X165914611Y-81923959D01*
X165908811Y-81915975D01*
X165761485Y-81743479D01*
X165754521Y-81736515D01*
X165582025Y-81589189D01*
X165574041Y-81583389D01*
X165456947Y-81511633D01*
X165443334Y-81507950D01*
X165442838Y-81508548D01*
X165441500Y-81515031D01*
X165441500Y-82038385D01*
X163941500Y-82038385D01*
X163941500Y-81520282D01*
X163937527Y-81506751D01*
X163936761Y-81506641D01*
X163930529Y-81508890D01*
X163808959Y-81583389D01*
X163800975Y-81589189D01*
X163628479Y-81736515D01*
X163621515Y-81743479D01*
X163474189Y-81915975D01*
X163468389Y-81923959D01*
X163396633Y-82041053D01*
X163392950Y-82054666D01*
X154008000Y-82054666D01*
X154008000Y-73748480D01*
X154009304Y-73730399D01*
X154010824Y-73719918D01*
X154010824Y-73719917D01*
X154011685Y-73713979D01*
X154008135Y-73637281D01*
X154008000Y-73631456D01*
X154008000Y-73607553D01*
X154005881Y-73585339D01*
X154005447Y-73579200D01*
X154005157Y-73572932D01*
X154001980Y-73504304D01*
X153997727Y-73486654D01*
X153994792Y-73469115D01*
X153994760Y-73468776D01*
X153993068Y-73451049D01*
X153991139Y-73444473D01*
X153971959Y-73379091D01*
X153970371Y-73373145D01*
X153962711Y-73341362D01*
X153952802Y-73300246D01*
X153945293Y-73283733D01*
X153939089Y-73267052D01*
X153933981Y-73249637D01*
X153919211Y-73220959D01*
X153899641Y-73182961D01*
X153896956Y-73177420D01*
X153868407Y-73114629D01*
X153868405Y-73114625D01*
X153865924Y-73109169D01*
X153855426Y-73094370D01*
X153846185Y-73079170D01*
X153840621Y-73068367D01*
X153840619Y-73068364D01*
X153837873Y-73063032D01*
X153832350Y-73056000D01*
X153791546Y-73004056D01*
X153787873Y-72999136D01*
X153744483Y-72937968D01*
X153740154Y-72933824D01*
X153740148Y-72933817D01*
X153731375Y-72925419D01*
X153719427Y-72912243D01*
X153708213Y-72897968D01*
X153651570Y-72848815D01*
X153647038Y-72844684D01*
X153592858Y-72792819D01*
X153577614Y-72782976D01*
X153563387Y-72772294D01*
X153560366Y-72769672D01*
X153549679Y-72760399D01*
X153484776Y-72722851D01*
X153479532Y-72719644D01*
X153421567Y-72682216D01*
X153421560Y-72682212D01*
X153416523Y-72678960D01*
X153410960Y-72676718D01*
X153399691Y-72672176D01*
X153383698Y-72664375D01*
X153373193Y-72658298D01*
X153373186Y-72658295D01*
X153367992Y-72655290D01*
X153297139Y-72630686D01*
X153291375Y-72628524D01*
X153227400Y-72602741D01*
X153227395Y-72602740D01*
X153221838Y-72600500D01*
X153204027Y-72597022D01*
X153186846Y-72592386D01*
X153169707Y-72586434D01*
X153163774Y-72585574D01*
X153163771Y-72585573D01*
X153124685Y-72579906D01*
X153102791Y-72576732D01*
X153038246Y-72547163D01*
X152999933Y-72487391D01*
X152995195Y-72447355D01*
X152995685Y-72443979D01*
X152992135Y-72367281D01*
X152992000Y-72361456D01*
X152992000Y-67906480D01*
X152993304Y-67888399D01*
X152994824Y-67877918D01*
X152994824Y-67877917D01*
X152995685Y-67871979D01*
X152992135Y-67795281D01*
X152992000Y-67789456D01*
X152992000Y-67765553D01*
X152991288Y-67758082D01*
X152989881Y-67743339D01*
X152989447Y-67737200D01*
X152986257Y-67668296D01*
X152985980Y-67662304D01*
X152981727Y-67644654D01*
X152978792Y-67627115D01*
X152977637Y-67615016D01*
X152977068Y-67609049D01*
X152961592Y-67556293D01*
X152955959Y-67537091D01*
X152954371Y-67531145D01*
X152938207Y-67464077D01*
X152936802Y-67458246D01*
X152929293Y-67441733D01*
X152923089Y-67425052D01*
X152917981Y-67407637D01*
X152915231Y-67402297D01*
X152883641Y-67340961D01*
X152880956Y-67335420D01*
X152852407Y-67272629D01*
X152852405Y-67272625D01*
X152849924Y-67267169D01*
X152839426Y-67252370D01*
X152830185Y-67237170D01*
X152824621Y-67226367D01*
X152824619Y-67226364D01*
X152821873Y-67221032D01*
X152775539Y-67162046D01*
X152771873Y-67157136D01*
X152728483Y-67095968D01*
X152724154Y-67091824D01*
X152724148Y-67091817D01*
X152715375Y-67083419D01*
X152703427Y-67070243D01*
X152692213Y-67055968D01*
X152635570Y-67006815D01*
X152631038Y-67002684D01*
X152576858Y-66950819D01*
X152561614Y-66940976D01*
X152547387Y-66930294D01*
X152544366Y-66927672D01*
X152533679Y-66918399D01*
X152468776Y-66880851D01*
X152463532Y-66877644D01*
X152405567Y-66840216D01*
X152405560Y-66840212D01*
X152400523Y-66836960D01*
X152394960Y-66834718D01*
X152383691Y-66830176D01*
X152367698Y-66822375D01*
X152357193Y-66816298D01*
X152357186Y-66816295D01*
X152351992Y-66813290D01*
X152281139Y-66788686D01*
X152275375Y-66786524D01*
X152211400Y-66760741D01*
X152211395Y-66760740D01*
X152205838Y-66758500D01*
X152188027Y-66755022D01*
X152170846Y-66750386D01*
X152153707Y-66744434D01*
X152147774Y-66743574D01*
X152147771Y-66743573D01*
X152106155Y-66737539D01*
X152079480Y-66733672D01*
X152073438Y-66732645D01*
X152011520Y-66720553D01*
X152004275Y-66719138D01*
X152004272Y-66719138D01*
X151999829Y-66718270D01*
X151994309Y-66718000D01*
X151980480Y-66718000D01*
X151962402Y-66716696D01*
X151955573Y-66715706D01*
X151951918Y-66715176D01*
X151951917Y-66715176D01*
X151945979Y-66714315D01*
X151869282Y-66717865D01*
X151863456Y-66718000D01*
X142582480Y-66718000D01*
X142564402Y-66716696D01*
X142557573Y-66715706D01*
X142553918Y-66715176D01*
X142553917Y-66715176D01*
X142547979Y-66714315D01*
X142471282Y-66717865D01*
X142465456Y-66718000D01*
X142441553Y-66718000D01*
X142438581Y-66718284D01*
X142438571Y-66718284D01*
X142419339Y-66720119D01*
X142413200Y-66720553D01*
X142406932Y-66720843D01*
X142338304Y-66724020D01*
X142320654Y-66728273D01*
X142303115Y-66731208D01*
X142285049Y-66732932D01*
X142279295Y-66734620D01*
X142213091Y-66754041D01*
X142207143Y-66755629D01*
X142134246Y-66773198D01*
X142128786Y-66775680D01*
X142128782Y-66775682D01*
X142122380Y-66778593D01*
X142117733Y-66780707D01*
X142101052Y-66786911D01*
X142083637Y-66792019D01*
X142078300Y-66794768D01*
X142078297Y-66794769D01*
X142016961Y-66826359D01*
X142011420Y-66829044D01*
X141948629Y-66857593D01*
X141948625Y-66857595D01*
X141943169Y-66860076D01*
X141929431Y-66869821D01*
X141862300Y-66892918D01*
X141788185Y-66872901D01*
X141784574Y-66870569D01*
X141732523Y-66836960D01*
X141726960Y-66834718D01*
X141715691Y-66830176D01*
X141699698Y-66822375D01*
X141689193Y-66816298D01*
X141689186Y-66816295D01*
X141683992Y-66813290D01*
X141613139Y-66788686D01*
X141607375Y-66786524D01*
X141543400Y-66760741D01*
X141543395Y-66760740D01*
X141537838Y-66758500D01*
X141520027Y-66755022D01*
X141502846Y-66750386D01*
X141485707Y-66744434D01*
X141479774Y-66743574D01*
X141479771Y-66743573D01*
X141438155Y-66737539D01*
X141411480Y-66733672D01*
X141405438Y-66732645D01*
X141343520Y-66720553D01*
X141336275Y-66719138D01*
X141336272Y-66719138D01*
X141331829Y-66718270D01*
X141326309Y-66718000D01*
X141312480Y-66718000D01*
X141294402Y-66716696D01*
X141287573Y-66715706D01*
X141283918Y-66715176D01*
X141283917Y-66715176D01*
X141277979Y-66714315D01*
X141201282Y-66717865D01*
X141195456Y-66718000D01*
X131914480Y-66718000D01*
X131896402Y-66716696D01*
X131889573Y-66715706D01*
X131885918Y-66715176D01*
X131885917Y-66715176D01*
X131879979Y-66714315D01*
X131803282Y-66717865D01*
X131797456Y-66718000D01*
X131773553Y-66718000D01*
X131770581Y-66718284D01*
X131770571Y-66718284D01*
X131751339Y-66720119D01*
X131745200Y-66720553D01*
X131738932Y-66720843D01*
X131670304Y-66724020D01*
X131652654Y-66728273D01*
X131635115Y-66731208D01*
X131617049Y-66732932D01*
X131611295Y-66734620D01*
X131545091Y-66754041D01*
X131539143Y-66755629D01*
X131466246Y-66773198D01*
X131460786Y-66775680D01*
X131460782Y-66775682D01*
X131454380Y-66778593D01*
X131449733Y-66780707D01*
X131433052Y-66786911D01*
X131415637Y-66792019D01*
X131410300Y-66794768D01*
X131410297Y-66794769D01*
X131348961Y-66826359D01*
X131343420Y-66829044D01*
X131280629Y-66857593D01*
X131280625Y-66857595D01*
X131275169Y-66860076D01*
X131260370Y-66870574D01*
X131245170Y-66879815D01*
X131234367Y-66885379D01*
X131234364Y-66885381D01*
X131229032Y-66888127D01*
X131224317Y-66891831D01*
X131224315Y-66891832D01*
X131201195Y-66909994D01*
X131175352Y-66930294D01*
X131170056Y-66934454D01*
X131165136Y-66938127D01*
X131103968Y-66981517D01*
X131099824Y-66985846D01*
X131099817Y-66985852D01*
X131091419Y-66994625D01*
X131078243Y-67006573D01*
X131063968Y-67017787D01*
X131060037Y-67022317D01*
X131060036Y-67022318D01*
X131014815Y-67074430D01*
X131010684Y-67078962D01*
X130958819Y-67133142D01*
X130955566Y-67138180D01*
X130948976Y-67148386D01*
X130938294Y-67162613D01*
X130926399Y-67176321D01*
X130923395Y-67181514D01*
X130888857Y-67241215D01*
X130885644Y-67246468D01*
X130848216Y-67304433D01*
X130848212Y-67304440D01*
X130844960Y-67309477D01*
X130842718Y-67315039D01*
X130842718Y-67315040D01*
X130838176Y-67326309D01*
X130830375Y-67342302D01*
X130824298Y-67352807D01*
X130824295Y-67352814D01*
X130821290Y-67358008D01*
X130819322Y-67363676D01*
X130796686Y-67428860D01*
X130794524Y-67434625D01*
X130768741Y-67498600D01*
X130768740Y-67498605D01*
X130766500Y-67504162D01*
X130763022Y-67521973D01*
X130758386Y-67539152D01*
X130752434Y-67556293D01*
X130742166Y-67627115D01*
X130741673Y-67630512D01*
X130740645Y-67636562D01*
X130726270Y-67710171D01*
X130726000Y-67715691D01*
X130726000Y-67729520D01*
X130724696Y-67747598D01*
X130722315Y-67764021D01*
X130723627Y-67792365D01*
X130725865Y-67840718D01*
X130726000Y-67846544D01*
X130726000Y-72301520D01*
X130724696Y-72319598D01*
X130722315Y-72336021D01*
X130723627Y-72364365D01*
X130725865Y-72412718D01*
X130726000Y-72418544D01*
X130726000Y-72442447D01*
X130726284Y-72445419D01*
X130726284Y-72445429D01*
X130728119Y-72464661D01*
X130728553Y-72470800D01*
X130732020Y-72545696D01*
X130736273Y-72563346D01*
X130739208Y-72580885D01*
X130740932Y-72598951D01*
X130742620Y-72604705D01*
X130762041Y-72670909D01*
X130763629Y-72676855D01*
X130781198Y-72749754D01*
X130783680Y-72755214D01*
X130783682Y-72755218D01*
X130788705Y-72766263D01*
X130794911Y-72782948D01*
X130800019Y-72800363D01*
X130802768Y-72805700D01*
X130802769Y-72805703D01*
X130834359Y-72867039D01*
X130837044Y-72872580D01*
X130865593Y-72935371D01*
X130865595Y-72935375D01*
X130868076Y-72940831D01*
X130878574Y-72955630D01*
X130887815Y-72970830D01*
X130893379Y-72981633D01*
X130896127Y-72986968D01*
X130899831Y-72991683D01*
X130899832Y-72991685D01*
X130942454Y-73045944D01*
X130946127Y-73050864D01*
X130989517Y-73112032D01*
X130993846Y-73116176D01*
X130993852Y-73116183D01*
X131002625Y-73124581D01*
X131014573Y-73137757D01*
X131025787Y-73152032D01*
X131030317Y-73155963D01*
X131030318Y-73155964D01*
X131082430Y-73201185D01*
X131086962Y-73205316D01*
X131141142Y-73257181D01*
X131146180Y-73260434D01*
X131156386Y-73267024D01*
X131170613Y-73277706D01*
X131184321Y-73289601D01*
X131249224Y-73327149D01*
X131254468Y-73330356D01*
X131312433Y-73367784D01*
X131312440Y-73367788D01*
X131317477Y-73371040D01*
X131323039Y-73373282D01*
X131323040Y-73373282D01*
X131334309Y-73377824D01*
X131350302Y-73385625D01*
X131360807Y-73391702D01*
X131360814Y-73391705D01*
X131366008Y-73394710D01*
X131436860Y-73419314D01*
X131442625Y-73421476D01*
X131506600Y-73447259D01*
X131506605Y-73447260D01*
X131512162Y-73449500D01*
X131529973Y-73452978D01*
X131547152Y-73457614D01*
X131564293Y-73463566D01*
X131570226Y-73464426D01*
X131570229Y-73464427D01*
X131611845Y-73470461D01*
X131638520Y-73474328D01*
X131644562Y-73475355D01*
X131693127Y-73484839D01*
X131713725Y-73488862D01*
X131713728Y-73488862D01*
X131718171Y-73489730D01*
X131723691Y-73490000D01*
X131737520Y-73490000D01*
X131755598Y-73491304D01*
X131762427Y-73492294D01*
X131766082Y-73492824D01*
X131766083Y-73492824D01*
X131772021Y-73493685D01*
X131848719Y-73490135D01*
X131854544Y-73490000D01*
X135426000Y-73490000D01*
X135494121Y-73510002D01*
X135540614Y-73563658D01*
X135552000Y-73616000D01*
X135552000Y-85509520D01*
X135550696Y-85527598D01*
X135548315Y-85544021D01*
X135551865Y-85620718D01*
X135552000Y-85626544D01*
X135552000Y-85650447D01*
X135552284Y-85653419D01*
X135552284Y-85653429D01*
X135554119Y-85672661D01*
X135554553Y-85678800D01*
X135558020Y-85753696D01*
X135562273Y-85771346D01*
X135565208Y-85788885D01*
X135566932Y-85806951D01*
X135568620Y-85812705D01*
X135588041Y-85878909D01*
X135589629Y-85884855D01*
X135607198Y-85957754D01*
X135609680Y-85963214D01*
X135609682Y-85963218D01*
X135614705Y-85974263D01*
X135620911Y-85990948D01*
X135626019Y-86008363D01*
X135628768Y-86013700D01*
X135628769Y-86013703D01*
X135660359Y-86075039D01*
X135663044Y-86080580D01*
X135691593Y-86143371D01*
X135691595Y-86143375D01*
X135694076Y-86148831D01*
X135704574Y-86163630D01*
X135713815Y-86178830D01*
X135716454Y-86183953D01*
X135722127Y-86194968D01*
X135725831Y-86199683D01*
X135725832Y-86199685D01*
X135768454Y-86253944D01*
X135772127Y-86258864D01*
X135815517Y-86320032D01*
X135819846Y-86324176D01*
X135819852Y-86324183D01*
X135828625Y-86332581D01*
X135840573Y-86345757D01*
X135851787Y-86360032D01*
X135856317Y-86363963D01*
X135856318Y-86363964D01*
X135908430Y-86409185D01*
X135912962Y-86413316D01*
X135967142Y-86465181D01*
X135972180Y-86468434D01*
X135982386Y-86475024D01*
X135996613Y-86485706D01*
X136010321Y-86497601D01*
X136075224Y-86535149D01*
X136080468Y-86538356D01*
X136138433Y-86575784D01*
X136138439Y-86575787D01*
X136143477Y-86579040D01*
X136149039Y-86581282D01*
X136149040Y-86581282D01*
X136160309Y-86585824D01*
X136176302Y-86593625D01*
X136186807Y-86599702D01*
X136186814Y-86599705D01*
X136192008Y-86602710D01*
X136245343Y-86621231D01*
X136262860Y-86627314D01*
X136268625Y-86629476D01*
X136332600Y-86655259D01*
X136332605Y-86655260D01*
X136338162Y-86657500D01*
X136355973Y-86660978D01*
X136373152Y-86665614D01*
X136390293Y-86671566D01*
X136396226Y-86672426D01*
X136396229Y-86672427D01*
X136437845Y-86678461D01*
X136464520Y-86682328D01*
X136470562Y-86683355D01*
X136507532Y-86690575D01*
X136539725Y-86696862D01*
X136539728Y-86696862D01*
X136544171Y-86697730D01*
X136549691Y-86698000D01*
X136563520Y-86698000D01*
X136581598Y-86699304D01*
X136588427Y-86700294D01*
X136592082Y-86700824D01*
X136592083Y-86700824D01*
X136598021Y-86701685D01*
X136674719Y-86698135D01*
X136680544Y-86698000D01*
X141135520Y-86698000D01*
X141153598Y-86699304D01*
X141160427Y-86700294D01*
X141164082Y-86700824D01*
X141164083Y-86700824D01*
X141170021Y-86701685D01*
X141246719Y-86698135D01*
X141252544Y-86698000D01*
X141276447Y-86698000D01*
X141279419Y-86697716D01*
X141279429Y-86697716D01*
X141298661Y-86695881D01*
X141304800Y-86695447D01*
X141311068Y-86695157D01*
X141379696Y-86691980D01*
X141397346Y-86687727D01*
X141414885Y-86684792D01*
X141415224Y-86684760D01*
X141432951Y-86683068D01*
X141439527Y-86681139D01*
X141504909Y-86661959D01*
X141510855Y-86660371D01*
X141532066Y-86655259D01*
X141583754Y-86642802D01*
X141589214Y-86640320D01*
X141589218Y-86640318D01*
X141595620Y-86637407D01*
X141600267Y-86635293D01*
X141616948Y-86629089D01*
X141634363Y-86623981D01*
X141639700Y-86621232D01*
X141639703Y-86621231D01*
X141701039Y-86589641D01*
X141706580Y-86586956D01*
X141769371Y-86558407D01*
X141769375Y-86558405D01*
X141774831Y-86555924D01*
X141788569Y-86546179D01*
X141855700Y-86523082D01*
X141929814Y-86543099D01*
X141985477Y-86579040D01*
X141991039Y-86581282D01*
X141991040Y-86581282D01*
X142002309Y-86585824D01*
X142018302Y-86593625D01*
X142028807Y-86599702D01*
X142028814Y-86599705D01*
X142034008Y-86602710D01*
X142087343Y-86621231D01*
X142104860Y-86627314D01*
X142110625Y-86629476D01*
X142174600Y-86655259D01*
X142174605Y-86655260D01*
X142180162Y-86657500D01*
X142197973Y-86660978D01*
X142215152Y-86665614D01*
X142232293Y-86671566D01*
X142238226Y-86672426D01*
X142238229Y-86672427D01*
X142279845Y-86678461D01*
X142306520Y-86682328D01*
X142312562Y-86683355D01*
X142349532Y-86690575D01*
X142381725Y-86696862D01*
X142381728Y-86696862D01*
X142386171Y-86697730D01*
X142391691Y-86698000D01*
X142405520Y-86698000D01*
X142423598Y-86699304D01*
X142430427Y-86700294D01*
X142434082Y-86700824D01*
X142434083Y-86700824D01*
X142440021Y-86701685D01*
X142516719Y-86698135D01*
X142522544Y-86698000D01*
X146977520Y-86698000D01*
X146995598Y-86699304D01*
X147002427Y-86700294D01*
X147006082Y-86700824D01*
X147006083Y-86700824D01*
X147012021Y-86701685D01*
X147088719Y-86698135D01*
X147094544Y-86698000D01*
X147110000Y-86698000D01*
X147178121Y-86718002D01*
X147224614Y-86771658D01*
X147236000Y-86824000D01*
X147236000Y-88432642D01*
X147215998Y-88500763D01*
X147162342Y-88547256D01*
X147115826Y-88558507D01*
X147043282Y-88561865D01*
X147037456Y-88562000D01*
X142582480Y-88562000D01*
X142564402Y-88560696D01*
X142557573Y-88559706D01*
X142553918Y-88559176D01*
X142553917Y-88559176D01*
X142547979Y-88558315D01*
X142471282Y-88561865D01*
X142465456Y-88562000D01*
X142441553Y-88562000D01*
X142438581Y-88562284D01*
X142438571Y-88562284D01*
X142419339Y-88564119D01*
X142413200Y-88564553D01*
X142406932Y-88564843D01*
X142338304Y-88568020D01*
X142320654Y-88572273D01*
X142303115Y-88575208D01*
X142285049Y-88576932D01*
X142279295Y-88578620D01*
X142213091Y-88598041D01*
X142207143Y-88599629D01*
X142134246Y-88617198D01*
X142128786Y-88619680D01*
X142128782Y-88619682D01*
X142122380Y-88622593D01*
X142117733Y-88624707D01*
X142101052Y-88630911D01*
X142083637Y-88636019D01*
X142078300Y-88638768D01*
X142078297Y-88638769D01*
X142016961Y-88670359D01*
X142011420Y-88673044D01*
X141948629Y-88701593D01*
X141948625Y-88701595D01*
X141943169Y-88704076D01*
X141929431Y-88713821D01*
X141862300Y-88736918D01*
X141788185Y-88716901D01*
X141784574Y-88714569D01*
X141732523Y-88680960D01*
X141726960Y-88678718D01*
X141715691Y-88674176D01*
X141699698Y-88666375D01*
X141689193Y-88660298D01*
X141689186Y-88660295D01*
X141683992Y-88657290D01*
X141613139Y-88632686D01*
X141607375Y-88630524D01*
X141543400Y-88604741D01*
X141543395Y-88604740D01*
X141537838Y-88602500D01*
X141520027Y-88599022D01*
X141502846Y-88594386D01*
X141485707Y-88588434D01*
X141479774Y-88587574D01*
X141479771Y-88587573D01*
X141438155Y-88581539D01*
X141411480Y-88577672D01*
X141405438Y-88576645D01*
X141343520Y-88564553D01*
X141336275Y-88563138D01*
X141336272Y-88563138D01*
X141331829Y-88562270D01*
X141326309Y-88562000D01*
X141312480Y-88562000D01*
X141294402Y-88560696D01*
X141287573Y-88559706D01*
X141283918Y-88559176D01*
X141283917Y-88559176D01*
X141277979Y-88558315D01*
X141201282Y-88561865D01*
X141195456Y-88562000D01*
X136740480Y-88562000D01*
X136722402Y-88560696D01*
X136715573Y-88559706D01*
X136711918Y-88559176D01*
X136711917Y-88559176D01*
X136705979Y-88558315D01*
X136629282Y-88561865D01*
X136623456Y-88562000D01*
X136599553Y-88562000D01*
X136596581Y-88562284D01*
X136596571Y-88562284D01*
X136577339Y-88564119D01*
X136571200Y-88564553D01*
X136564932Y-88564843D01*
X136496304Y-88568020D01*
X136478654Y-88572273D01*
X136461115Y-88575208D01*
X136443049Y-88576932D01*
X136437295Y-88578620D01*
X136371091Y-88598041D01*
X136365143Y-88599629D01*
X136292246Y-88617198D01*
X136286786Y-88619680D01*
X136286782Y-88619682D01*
X136280380Y-88622593D01*
X136275733Y-88624707D01*
X136259052Y-88630911D01*
X136241637Y-88636019D01*
X136236300Y-88638768D01*
X136236297Y-88638769D01*
X136174961Y-88670359D01*
X136169420Y-88673044D01*
X136106629Y-88701593D01*
X136106625Y-88701595D01*
X136101169Y-88704076D01*
X136086370Y-88714574D01*
X136071170Y-88723815D01*
X136060367Y-88729379D01*
X136060364Y-88729381D01*
X136055032Y-88732127D01*
X136050317Y-88735831D01*
X136050315Y-88735832D01*
X135996056Y-88778454D01*
X135991136Y-88782127D01*
X135929968Y-88825517D01*
X135925824Y-88829846D01*
X135925817Y-88829852D01*
X135917419Y-88838625D01*
X135904243Y-88850573D01*
X135889968Y-88861787D01*
X135886037Y-88866317D01*
X135886036Y-88866318D01*
X135840815Y-88918430D01*
X135836684Y-88922962D01*
X135784819Y-88977142D01*
X135781566Y-88982180D01*
X135774976Y-88992386D01*
X135764294Y-89006613D01*
X135752399Y-89020321D01*
X135749395Y-89025514D01*
X135714857Y-89085215D01*
X135711644Y-89090468D01*
X135674216Y-89148433D01*
X135674212Y-89148440D01*
X135670960Y-89153477D01*
X135668718Y-89159039D01*
X135668718Y-89159040D01*
X135664176Y-89170309D01*
X135656375Y-89186302D01*
X135650298Y-89196807D01*
X135650295Y-89196814D01*
X135647290Y-89202008D01*
X135645322Y-89207676D01*
X135622686Y-89272860D01*
X135620524Y-89278625D01*
X135594741Y-89342600D01*
X135594740Y-89342605D01*
X135592500Y-89348162D01*
X135589022Y-89365973D01*
X135584386Y-89383152D01*
X135578434Y-89400293D01*
X135577574Y-89406226D01*
X135577573Y-89406229D01*
X135567673Y-89474512D01*
X135566645Y-89480562D01*
X135552270Y-89554171D01*
X135552000Y-89559691D01*
X135552000Y-89573520D01*
X135550696Y-89591598D01*
X135548315Y-89608021D01*
X135548593Y-89614018D01*
X135551865Y-89684718D01*
X135552000Y-89690544D01*
X135552000Y-101644000D01*
X135531998Y-101712121D01*
X135478342Y-101758614D01*
X135426000Y-101770000D01*
X131914480Y-101770000D01*
X131896402Y-101768696D01*
X131889573Y-101767706D01*
X131885918Y-101767176D01*
X131885917Y-101767176D01*
X131879979Y-101766315D01*
X131803282Y-101769865D01*
X131797456Y-101770000D01*
X131773553Y-101770000D01*
X131770581Y-101770284D01*
X131770571Y-101770284D01*
X131751339Y-101772119D01*
X131745200Y-101772553D01*
X131738932Y-101772843D01*
X131670304Y-101776020D01*
X131652654Y-101780273D01*
X131635115Y-101783208D01*
X131617049Y-101784932D01*
X131611295Y-101786620D01*
X131545091Y-101806041D01*
X131539143Y-101807629D01*
X131466246Y-101825198D01*
X131460786Y-101827680D01*
X131460782Y-101827682D01*
X131454380Y-101830593D01*
X131449733Y-101832707D01*
X131433052Y-101838911D01*
X131415637Y-101844019D01*
X131410300Y-101846768D01*
X131410297Y-101846769D01*
X131348961Y-101878359D01*
X131343420Y-101881044D01*
X131280629Y-101909593D01*
X131280625Y-101909595D01*
X131275169Y-101912076D01*
X131260370Y-101922574D01*
X131245170Y-101931815D01*
X131234367Y-101937379D01*
X131234364Y-101937381D01*
X131229032Y-101940127D01*
X131170321Y-101986246D01*
X131170056Y-101986454D01*
X131165136Y-101990127D01*
X131103968Y-102033517D01*
X131099824Y-102037846D01*
X131099817Y-102037852D01*
X131091419Y-102046625D01*
X131078243Y-102058573D01*
X131063968Y-102069787D01*
X131060037Y-102074317D01*
X131060036Y-102074318D01*
X131014815Y-102126430D01*
X131010684Y-102130962D01*
X130958819Y-102185142D01*
X130955566Y-102190180D01*
X130948976Y-102200386D01*
X130938294Y-102214613D01*
X130926399Y-102228321D01*
X130893692Y-102284858D01*
X130888857Y-102293215D01*
X130885644Y-102298468D01*
X130848216Y-102356433D01*
X130848212Y-102356440D01*
X130844960Y-102361477D01*
X130842718Y-102367039D01*
X130842718Y-102367040D01*
X130838176Y-102378309D01*
X130830375Y-102394302D01*
X130824298Y-102404807D01*
X130824295Y-102404814D01*
X130821290Y-102410008D01*
X130819322Y-102415676D01*
X130796686Y-102480860D01*
X130794524Y-102486625D01*
X130768741Y-102550600D01*
X130768740Y-102550605D01*
X130766500Y-102556162D01*
X130763022Y-102573973D01*
X130758386Y-102591152D01*
X130752434Y-102608293D01*
X130751574Y-102614226D01*
X130751573Y-102614229D01*
X130741673Y-102682512D01*
X130740645Y-102688562D01*
X130726270Y-102762171D01*
X130726000Y-102767691D01*
X130726000Y-102781520D01*
X130724696Y-102799598D01*
X130722315Y-102816021D01*
X130723627Y-102844365D01*
X130725865Y-102892718D01*
X130726000Y-102898544D01*
X130726000Y-107353520D01*
X130724696Y-107371598D01*
X130722315Y-107388021D01*
X125714000Y-107388021D01*
X125714000Y-63231572D01*
X155486511Y-63231572D01*
X155504735Y-63562712D01*
X155562608Y-63889265D01*
X155563713Y-63892890D01*
X155563714Y-63892895D01*
X155639475Y-64141471D01*
X155659294Y-64206500D01*
X155793391Y-64509821D01*
X155795332Y-64513083D01*
X155961017Y-64791576D01*
X155961021Y-64791582D01*
X155962957Y-64794836D01*
X156165536Y-65057415D01*
X156398193Y-65293756D01*
X156657558Y-65500434D01*
X156939874Y-65674455D01*
X156943321Y-65676044D01*
X157237607Y-65811713D01*
X157237617Y-65811717D01*
X157241051Y-65813300D01*
X157244651Y-65814459D01*
X157244658Y-65814462D01*
X157553119Y-65913795D01*
X157553122Y-65913796D01*
X157556728Y-65914957D01*
X157560444Y-65915676D01*
X157560452Y-65915678D01*
X157878613Y-65977234D01*
X157878622Y-65977235D01*
X157882332Y-65977953D01*
X157886108Y-65978220D01*
X157886113Y-65978221D01*
X157984748Y-65985205D01*
X158144279Y-65996500D01*
X158325386Y-65996500D01*
X158327252Y-65996388D01*
X158327269Y-65996387D01*
X158569262Y-65981798D01*
X158569266Y-65981798D01*
X158573040Y-65981570D01*
X158576762Y-65980890D01*
X158576764Y-65980890D01*
X158650632Y-65967399D01*
X158899285Y-65921987D01*
X159216009Y-65823641D01*
X159518625Y-65687958D01*
X159802748Y-65516902D01*
X159805732Y-65514575D01*
X159805739Y-65514570D01*
X160061268Y-65315287D01*
X160061270Y-65315285D01*
X160064263Y-65312951D01*
X160299382Y-65079060D01*
X160504699Y-64818617D01*
X160677240Y-64535393D01*
X160732021Y-64414909D01*
X160812937Y-64236945D01*
X160812940Y-64236937D01*
X160814506Y-64233493D01*
X160914509Y-63917288D01*
X160975799Y-63591359D01*
X160997489Y-63260428D01*
X160979265Y-62929288D01*
X160921392Y-62602735D01*
X160912852Y-62574712D01*
X160825815Y-62289139D01*
X160824706Y-62285500D01*
X160690609Y-61982179D01*
X160625004Y-61871907D01*
X160522983Y-61700424D01*
X160522979Y-61700418D01*
X160521043Y-61697164D01*
X160318464Y-61434585D01*
X160085807Y-61198244D01*
X159826442Y-60991566D01*
X159544126Y-60817545D01*
X159506174Y-60800049D01*
X159246393Y-60680287D01*
X159246383Y-60680283D01*
X159242949Y-60678700D01*
X159239349Y-60677541D01*
X159239342Y-60677538D01*
X158930881Y-60578205D01*
X158930878Y-60578204D01*
X158927272Y-60577043D01*
X158923556Y-60576324D01*
X158923548Y-60576322D01*
X158605387Y-60514766D01*
X158605378Y-60514765D01*
X158601668Y-60514047D01*
X158597892Y-60513780D01*
X158597887Y-60513779D01*
X158499252Y-60506795D01*
X158339721Y-60495500D01*
X158158614Y-60495500D01*
X158156748Y-60495612D01*
X158156731Y-60495613D01*
X157914738Y-60510202D01*
X157914734Y-60510202D01*
X157910960Y-60510430D01*
X157907238Y-60511110D01*
X157907236Y-60511110D01*
X157891155Y-60514047D01*
X157584715Y-60570013D01*
X157267991Y-60668359D01*
X156965375Y-60804042D01*
X156681252Y-60975098D01*
X156678268Y-60977425D01*
X156678261Y-60977430D01*
X156657103Y-60993931D01*
X156419737Y-61179049D01*
X156184618Y-61412940D01*
X155979301Y-61673383D01*
X155806760Y-61956607D01*
X155795133Y-61982179D01*
X155671063Y-62255055D01*
X155671060Y-62255063D01*
X155669494Y-62258507D01*
X155569491Y-62574712D01*
X155508201Y-62900641D01*
X155486511Y-63231572D01*
X125714000Y-63231572D01*
X125714000Y-60308000D01*
X125734002Y-60239879D01*
X125787658Y-60193386D01*
X125840000Y-60182000D01*
X179214000Y-60182000D01*
X179282121Y-60202002D01*
G37*
%TD.AperFunction*%
%TD*%
M02*
