%TF.GenerationSoftware,KiCad,Pcbnew,(6.0.0)*%
%TF.CreationDate,2024-03-29T19:30:21+00:00*%
%TF.ProjectId,Power_2Relais_TRX_PA,506f7765-725f-4325-9265-6c6169735f54,rev?*%
%TF.SameCoordinates,Original*%
%TF.FileFunction,Copper,L2,Bot*%
%TF.FilePolarity,Positive*%
%FSLAX46Y46*%
G04 Gerber Fmt 4.6, Leading zero omitted, Abs format (unit mm)*
G04 Created by KiCad (PCBNEW (6.0.0)) date 2024-03-29 19:30:21*
%MOMM*%
%LPD*%
G01*
G04 APERTURE LIST*
%TA.AperFunction,ComponentPad*%
%ADD10R,2.500000X2.500000*%
%TD*%
%TA.AperFunction,ComponentPad*%
%ADD11O,2.500000X2.500000*%
%TD*%
%TA.AperFunction,ComponentPad*%
%ADD12R,2.200000X2.200000*%
%TD*%
%TA.AperFunction,ComponentPad*%
%ADD13O,2.200000X2.200000*%
%TD*%
%TA.AperFunction,ViaPad*%
%ADD14C,1.000000*%
%TD*%
G04 APERTURE END LIST*
D10*
%TO.P,RL1,1*%
%TO.N,+*%
X164691500Y-75306500D03*
D11*
%TO.P,RL1,2*%
%TO.N,Net-(RL1-Pad2)*%
X149691500Y-75306500D03*
%TO.P,RL1,3*%
%TO.N,Ant.*%
X144691500Y-75306500D03*
%TO.P,RL1,4*%
%TO.N,PAoutput*%
X139691500Y-75306500D03*
%TO.P,RL1,5*%
X139691500Y-82806500D03*
%TO.P,RL1,6*%
%TO.N,Ant.*%
X144691500Y-82806500D03*
%TO.P,RL1,7*%
%TO.N,Net-(RL1-Pad2)*%
X149691500Y-82806500D03*
%TO.P,RL1,8*%
%TO.N,-*%
X164691500Y-82806500D03*
%TD*%
D10*
%TO.P,RL2,1*%
%TO.N,+*%
X164691500Y-92324500D03*
D11*
%TO.P,RL2,2*%
%TO.N,Net-(RL1-Pad2)*%
X149691500Y-92324500D03*
%TO.P,RL2,3*%
%TO.N,TRX*%
X144691500Y-92324500D03*
%TO.P,RL2,4*%
%TO.N,PAinput*%
X139691500Y-92324500D03*
%TO.P,RL2,5*%
X139691500Y-99824500D03*
%TO.P,RL2,6*%
%TO.N,TRX*%
X144691500Y-99824500D03*
%TO.P,RL2,7*%
%TO.N,Net-(RL1-Pad2)*%
X149691500Y-99824500D03*
%TO.P,RL2,8*%
%TO.N,-*%
X164691500Y-99824500D03*
%TD*%
D12*
%TO.P,D1,1,K*%
%TO.N,+*%
X172212000Y-83566000D03*
D13*
%TO.P,D1,2,A*%
%TO.N,-*%
X172212000Y-91186000D03*
%TD*%
D14*
%TO.N,-*%
X127000000Y-64770000D03*
X170180000Y-61214000D03*
X167640000Y-61214000D03*
X149860000Y-62992000D03*
X139700000Y-110744000D03*
X137160000Y-110744000D03*
X149860000Y-61214000D03*
X144780000Y-64770000D03*
X167640000Y-112268000D03*
X144780000Y-112522000D03*
X127000000Y-62992000D03*
X132334000Y-110744000D03*
X132334000Y-62992000D03*
X170180000Y-114046000D03*
X137160000Y-62992000D03*
X149860000Y-64770000D03*
X149860000Y-110744000D03*
X129794000Y-62992000D03*
X165100000Y-114046000D03*
X127000000Y-110744000D03*
X172720000Y-114046000D03*
X175260000Y-64770000D03*
X167640000Y-64770000D03*
X170180000Y-112268000D03*
X142240000Y-64770000D03*
X147320000Y-110744000D03*
X127000000Y-114300000D03*
X132334000Y-61214000D03*
X144780000Y-114300000D03*
X152400000Y-62992000D03*
X142240000Y-62992000D03*
X132334000Y-64770000D03*
X137160000Y-112522000D03*
X165100000Y-64770000D03*
X152400000Y-114300000D03*
X175260000Y-114046000D03*
X139700000Y-62992000D03*
X149860000Y-114300000D03*
X137160000Y-114300000D03*
X137160000Y-61214000D03*
X134620000Y-112522000D03*
X142240000Y-112522000D03*
X129794000Y-112522000D03*
X172720000Y-64770000D03*
X129794000Y-110744000D03*
X167640000Y-114046000D03*
X129794000Y-61214000D03*
X147320000Y-112522000D03*
X127000000Y-112522000D03*
X127000000Y-61214000D03*
X175260000Y-61214000D03*
X144780000Y-110744000D03*
X142240000Y-61214000D03*
X132334000Y-114300000D03*
X129794000Y-114300000D03*
X137160000Y-64770000D03*
X175260000Y-110744000D03*
X172720000Y-110744000D03*
X139700000Y-114300000D03*
X149860000Y-112522000D03*
X129794000Y-64770000D03*
X172720000Y-62992000D03*
X165100000Y-112268000D03*
X177800000Y-114046000D03*
X134620000Y-61214000D03*
X139700000Y-61214000D03*
X175260000Y-62992000D03*
X134620000Y-64770000D03*
X172720000Y-112268000D03*
X177800000Y-62992000D03*
X177800000Y-61214000D03*
X167640000Y-62992000D03*
X134620000Y-62992000D03*
X177800000Y-112268000D03*
X165100000Y-61214000D03*
X152400000Y-61214000D03*
X144780000Y-62992000D03*
X165100000Y-62992000D03*
X147320000Y-114300000D03*
X147320000Y-61214000D03*
X175260000Y-112268000D03*
X147320000Y-62992000D03*
X132334000Y-112522000D03*
X172720000Y-61214000D03*
X144780000Y-61214000D03*
X134620000Y-114300000D03*
X177800000Y-110744000D03*
X167640000Y-110744000D03*
X142240000Y-114300000D03*
X142240000Y-110744000D03*
X134620000Y-110744000D03*
X152400000Y-112522000D03*
X170180000Y-62992000D03*
X165100000Y-110744000D03*
X170180000Y-110744000D03*
X152400000Y-64770000D03*
X170180000Y-64770000D03*
X177800000Y-64770000D03*
X147320000Y-64770000D03*
X152400000Y-110744000D03*
X139700000Y-64770000D03*
X139700000Y-112522000D03*
%TD*%
%TA.AperFunction,Conductor*%
%TO.N,-*%
G36*
X180281621Y-59202502D02*
G01*
X180328114Y-59256158D01*
X180339500Y-59308500D01*
X180339500Y-116205500D01*
X180319498Y-116273621D01*
X180265842Y-116320114D01*
X180213500Y-116331500D01*
X124840500Y-116331500D01*
X124772379Y-116311498D01*
X124725886Y-116257842D01*
X124714500Y-116205500D01*
X124714500Y-111728497D01*
X156236637Y-111728497D01*
X156236881Y-111732932D01*
X156236881Y-111732936D01*
X156240105Y-111791503D01*
X156252205Y-112011370D01*
X156307474Y-112289226D01*
X156308950Y-112293429D01*
X156330181Y-112353885D01*
X156401342Y-112556524D01*
X156403395Y-112560477D01*
X156403398Y-112560483D01*
X156477360Y-112702865D01*
X156531936Y-112807928D01*
X156534519Y-112811543D01*
X156534523Y-112811549D01*
X156567176Y-112857242D01*
X156696651Y-113038424D01*
X156699729Y-113041651D01*
X156699731Y-113041653D01*
X156742355Y-113086334D01*
X156892199Y-113243412D01*
X157114680Y-113418801D01*
X157224927Y-113482837D01*
X157355807Y-113558859D01*
X157355813Y-113558862D01*
X157359654Y-113561093D01*
X157622232Y-113667448D01*
X157626545Y-113668519D01*
X157626550Y-113668521D01*
X157892856Y-113734672D01*
X157892861Y-113734673D01*
X157897177Y-113735745D01*
X157901605Y-113736199D01*
X157901607Y-113736199D01*
X157977307Y-113743955D01*
X158138790Y-113760500D01*
X158314170Y-113760500D01*
X158524593Y-113745601D01*
X158528948Y-113744663D01*
X158528951Y-113744663D01*
X158797200Y-113686911D01*
X158797202Y-113686911D01*
X158801547Y-113685975D01*
X159067337Y-113587920D01*
X159316660Y-113453393D01*
X159544540Y-113285078D01*
X159746430Y-113086334D01*
X159749131Y-113082794D01*
X159749137Y-113082788D01*
X159915602Y-112864667D01*
X159915605Y-112864663D01*
X159918304Y-112861126D01*
X160056730Y-112613947D01*
X160078946Y-112556524D01*
X160157341Y-112353885D01*
X160157343Y-112353879D01*
X160158948Y-112349730D01*
X160222918Y-112073747D01*
X160247363Y-111791503D01*
X160244140Y-111732936D01*
X160232040Y-111513073D01*
X160232039Y-111513066D01*
X160231795Y-111508630D01*
X160176526Y-111230774D01*
X160155279Y-111170270D01*
X160084136Y-110967684D01*
X160084135Y-110967681D01*
X160082658Y-110963476D01*
X160080605Y-110959523D01*
X160080602Y-110959517D01*
X159954116Y-110716023D01*
X159952064Y-110712072D01*
X159949481Y-110708457D01*
X159949477Y-110708451D01*
X159869858Y-110597037D01*
X159787349Y-110481576D01*
X159745028Y-110437212D01*
X159594876Y-110279811D01*
X159594873Y-110279808D01*
X159591801Y-110276588D01*
X159369320Y-110101199D01*
X159259073Y-110037163D01*
X159128193Y-109961141D01*
X159128187Y-109961138D01*
X159124346Y-109958907D01*
X158861768Y-109852552D01*
X158857455Y-109851481D01*
X158857450Y-109851479D01*
X158591144Y-109785328D01*
X158591139Y-109785327D01*
X158586823Y-109784255D01*
X158582395Y-109783801D01*
X158582393Y-109783801D01*
X158487552Y-109774084D01*
X158345210Y-109759500D01*
X158169830Y-109759500D01*
X157959407Y-109774399D01*
X157955052Y-109775337D01*
X157955049Y-109775337D01*
X157686800Y-109833089D01*
X157686798Y-109833089D01*
X157682453Y-109834025D01*
X157416663Y-109932080D01*
X157167340Y-110066607D01*
X156939460Y-110234922D01*
X156737570Y-110433666D01*
X156734869Y-110437206D01*
X156734863Y-110437212D01*
X156698237Y-110485204D01*
X156565696Y-110658874D01*
X156427270Y-110906053D01*
X156425662Y-110910211D01*
X156425659Y-110910216D01*
X156326659Y-111166115D01*
X156325052Y-111170270D01*
X156261082Y-111446253D01*
X156236637Y-111728497D01*
X124714500Y-111728497D01*
X124714500Y-102870000D01*
X131826000Y-102870000D01*
X154940000Y-102870000D01*
X154940000Y-100579239D01*
X163391641Y-100579239D01*
X163393890Y-100585471D01*
X163468389Y-100707041D01*
X163474189Y-100715025D01*
X163621515Y-100887521D01*
X163628479Y-100894485D01*
X163800975Y-101041811D01*
X163808959Y-101047611D01*
X163926053Y-101119367D01*
X163939666Y-101123050D01*
X163940162Y-101122452D01*
X163941500Y-101115969D01*
X163941500Y-101110718D01*
X165441500Y-101110718D01*
X165445473Y-101124249D01*
X165446239Y-101124359D01*
X165452471Y-101122110D01*
X165574041Y-101047611D01*
X165582025Y-101041811D01*
X165754521Y-100894485D01*
X165761485Y-100887521D01*
X165908811Y-100715025D01*
X165914611Y-100707041D01*
X165986367Y-100589947D01*
X165990050Y-100576334D01*
X165989452Y-100575838D01*
X165982969Y-100574500D01*
X165459615Y-100574500D01*
X165444376Y-100578975D01*
X165443171Y-100580365D01*
X165441500Y-100588048D01*
X165441500Y-101110718D01*
X163941500Y-101110718D01*
X163941500Y-100592615D01*
X163937025Y-100577376D01*
X163935635Y-100576171D01*
X163927952Y-100574500D01*
X163405282Y-100574500D01*
X163391751Y-100578473D01*
X163391641Y-100579239D01*
X154940000Y-100579239D01*
X154940000Y-99072666D01*
X163392950Y-99072666D01*
X163393548Y-99073162D01*
X163400031Y-99074500D01*
X163923385Y-99074500D01*
X163938624Y-99070025D01*
X163939829Y-99068635D01*
X163941500Y-99060952D01*
X163941500Y-99056385D01*
X165441500Y-99056385D01*
X165445975Y-99071624D01*
X165447365Y-99072829D01*
X165455048Y-99074500D01*
X165977718Y-99074500D01*
X165991249Y-99070527D01*
X165991359Y-99069761D01*
X165989110Y-99063529D01*
X165914611Y-98941959D01*
X165908811Y-98933975D01*
X165761485Y-98761479D01*
X165754521Y-98754515D01*
X165582025Y-98607189D01*
X165574041Y-98601389D01*
X165456947Y-98529633D01*
X165443334Y-98525950D01*
X165442838Y-98526548D01*
X165441500Y-98533031D01*
X165441500Y-99056385D01*
X163941500Y-99056385D01*
X163941500Y-98538282D01*
X163937527Y-98524751D01*
X163936761Y-98524641D01*
X163930529Y-98526890D01*
X163808959Y-98601389D01*
X163800975Y-98607189D01*
X163628479Y-98754515D01*
X163621515Y-98761479D01*
X163474189Y-98933975D01*
X163468389Y-98941959D01*
X163396633Y-99059053D01*
X163392950Y-99072666D01*
X154940000Y-99072666D01*
X154940000Y-93594248D01*
X163241000Y-93594248D01*
X163252633Y-93652731D01*
X163296948Y-93719052D01*
X163363269Y-93763367D01*
X163375438Y-93765788D01*
X163375439Y-93765788D01*
X163415684Y-93773793D01*
X163421752Y-93775000D01*
X165961248Y-93775000D01*
X165967316Y-93773793D01*
X166007561Y-93765788D01*
X166007562Y-93765788D01*
X166019731Y-93763367D01*
X166086052Y-93719052D01*
X166130367Y-93652731D01*
X166142000Y-93594248D01*
X166142000Y-91940741D01*
X171087982Y-91940741D01*
X171090228Y-91946965D01*
X171112934Y-91984019D01*
X171119012Y-91992323D01*
X171258025Y-92152804D01*
X171265387Y-92160014D01*
X171428736Y-92295628D01*
X171437183Y-92301543D01*
X171446359Y-92306905D01*
X171460046Y-92310301D01*
X171460965Y-92309145D01*
X171462000Y-92303849D01*
X171462000Y-92296158D01*
X172962000Y-92296158D01*
X172965751Y-92308931D01*
X172974284Y-92305511D01*
X173084742Y-92226722D01*
X173092603Y-92220078D01*
X173242995Y-92070210D01*
X173249672Y-92062365D01*
X173329903Y-91950712D01*
X173334290Y-91938208D01*
X173325273Y-91936000D01*
X172980115Y-91936000D01*
X172964876Y-91940475D01*
X172963671Y-91941865D01*
X172962000Y-91949548D01*
X172962000Y-92296158D01*
X171462000Y-92296158D01*
X171462000Y-91954115D01*
X171457525Y-91938876D01*
X171456135Y-91937671D01*
X171448452Y-91936000D01*
X171101623Y-91936000D01*
X171088092Y-91939973D01*
X171087982Y-91940741D01*
X166142000Y-91940741D01*
X166142000Y-91054752D01*
X166130367Y-90996269D01*
X166086052Y-90929948D01*
X166019731Y-90885633D01*
X166007562Y-90883212D01*
X166007561Y-90883212D01*
X165967316Y-90875207D01*
X165961248Y-90874000D01*
X163421752Y-90874000D01*
X163415684Y-90875207D01*
X163375439Y-90883212D01*
X163375438Y-90883212D01*
X163363269Y-90885633D01*
X163296948Y-90929948D01*
X163252633Y-90996269D01*
X163241000Y-91054752D01*
X163241000Y-93594248D01*
X154940000Y-93594248D01*
X154940000Y-90434046D01*
X171090495Y-90434046D01*
X171098918Y-90436000D01*
X171443885Y-90436000D01*
X171459124Y-90431525D01*
X171460329Y-90430135D01*
X171462000Y-90422452D01*
X171462000Y-90417885D01*
X172962000Y-90417885D01*
X172966475Y-90433124D01*
X172967865Y-90434329D01*
X172975548Y-90436000D01*
X173321408Y-90436000D01*
X173334918Y-90432033D01*
X173332112Y-90424544D01*
X173291246Y-90361375D01*
X173284955Y-90353206D01*
X173142068Y-90196176D01*
X173134535Y-90189151D01*
X172971995Y-90060785D01*
X172964093Y-90059027D01*
X172962714Y-90060852D01*
X172962000Y-90064756D01*
X172962000Y-90417885D01*
X171462000Y-90417885D01*
X171462000Y-90073974D01*
X171458374Y-90061626D01*
X171449306Y-90065390D01*
X171314098Y-90166907D01*
X171306391Y-90173750D01*
X171159709Y-90327243D01*
X171153223Y-90335253D01*
X171094707Y-90421034D01*
X171090495Y-90434046D01*
X154940000Y-90434046D01*
X154940000Y-84685748D01*
X170911500Y-84685748D01*
X170923133Y-84744231D01*
X170967448Y-84810552D01*
X171033769Y-84854867D01*
X171045938Y-84857288D01*
X171045939Y-84857288D01*
X171086184Y-84865293D01*
X171092252Y-84866500D01*
X173331748Y-84866500D01*
X173337816Y-84865293D01*
X173378061Y-84857288D01*
X173378062Y-84857288D01*
X173390231Y-84854867D01*
X173456552Y-84810552D01*
X173500867Y-84744231D01*
X173512500Y-84685748D01*
X173512500Y-82446252D01*
X173500867Y-82387769D01*
X173456552Y-82321448D01*
X173390231Y-82277133D01*
X173378062Y-82274712D01*
X173378061Y-82274712D01*
X173337816Y-82266707D01*
X173331748Y-82265500D01*
X171092252Y-82265500D01*
X171086184Y-82266707D01*
X171045939Y-82274712D01*
X171045938Y-82274712D01*
X171033769Y-82277133D01*
X170967448Y-82321448D01*
X170923133Y-82387769D01*
X170911500Y-82446252D01*
X170911500Y-84685748D01*
X154940000Y-84685748D01*
X154940000Y-83561239D01*
X163391641Y-83561239D01*
X163393890Y-83567471D01*
X163468389Y-83689041D01*
X163474189Y-83697025D01*
X163621515Y-83869521D01*
X163628479Y-83876485D01*
X163800975Y-84023811D01*
X163808959Y-84029611D01*
X163926053Y-84101367D01*
X163939666Y-84105050D01*
X163940162Y-84104452D01*
X163941500Y-84097969D01*
X163941500Y-84092718D01*
X165441500Y-84092718D01*
X165445473Y-84106249D01*
X165446239Y-84106359D01*
X165452471Y-84104110D01*
X165574041Y-84029611D01*
X165582025Y-84023811D01*
X165754521Y-83876485D01*
X165761485Y-83869521D01*
X165908811Y-83697025D01*
X165914611Y-83689041D01*
X165986367Y-83571947D01*
X165990050Y-83558334D01*
X165989452Y-83557838D01*
X165982969Y-83556500D01*
X165459615Y-83556500D01*
X165444376Y-83560975D01*
X165443171Y-83562365D01*
X165441500Y-83570048D01*
X165441500Y-84092718D01*
X163941500Y-84092718D01*
X163941500Y-83574615D01*
X163937025Y-83559376D01*
X163935635Y-83558171D01*
X163927952Y-83556500D01*
X163405282Y-83556500D01*
X163391751Y-83560473D01*
X163391641Y-83561239D01*
X154940000Y-83561239D01*
X154940000Y-82054666D01*
X163392950Y-82054666D01*
X163393548Y-82055162D01*
X163400031Y-82056500D01*
X163923385Y-82056500D01*
X163938624Y-82052025D01*
X163939829Y-82050635D01*
X163941500Y-82042952D01*
X163941500Y-82038385D01*
X165441500Y-82038385D01*
X165445975Y-82053624D01*
X165447365Y-82054829D01*
X165455048Y-82056500D01*
X165977718Y-82056500D01*
X165991249Y-82052527D01*
X165991359Y-82051761D01*
X165989110Y-82045529D01*
X165914611Y-81923959D01*
X165908811Y-81915975D01*
X165761485Y-81743479D01*
X165754521Y-81736515D01*
X165582025Y-81589189D01*
X165574041Y-81583389D01*
X165456947Y-81511633D01*
X165443334Y-81507950D01*
X165442838Y-81508548D01*
X165441500Y-81515031D01*
X165441500Y-82038385D01*
X163941500Y-82038385D01*
X163941500Y-81520282D01*
X163937527Y-81506751D01*
X163936761Y-81506641D01*
X163930529Y-81508890D01*
X163808959Y-81583389D01*
X163800975Y-81589189D01*
X163628479Y-81736515D01*
X163621515Y-81743479D01*
X163474189Y-81915975D01*
X163468389Y-81923959D01*
X163396633Y-82041053D01*
X163392950Y-82054666D01*
X154940000Y-82054666D01*
X154940000Y-76576248D01*
X163241000Y-76576248D01*
X163252633Y-76634731D01*
X163296948Y-76701052D01*
X163363269Y-76745367D01*
X163375438Y-76747788D01*
X163375439Y-76747788D01*
X163415684Y-76755793D01*
X163421752Y-76757000D01*
X165961248Y-76757000D01*
X165967316Y-76755793D01*
X166007561Y-76747788D01*
X166007562Y-76747788D01*
X166019731Y-76745367D01*
X166086052Y-76701052D01*
X166130367Y-76634731D01*
X166142000Y-76576248D01*
X166142000Y-74036752D01*
X166130367Y-73978269D01*
X166086052Y-73911948D01*
X166019731Y-73867633D01*
X166007562Y-73865212D01*
X166007561Y-73865212D01*
X165967316Y-73857207D01*
X165961248Y-73856000D01*
X163421752Y-73856000D01*
X163415684Y-73857207D01*
X163375439Y-73865212D01*
X163375438Y-73865212D01*
X163363269Y-73867633D01*
X163296948Y-73911948D01*
X163252633Y-73978269D01*
X163241000Y-74036752D01*
X163241000Y-76576248D01*
X154940000Y-76576248D01*
X154940000Y-72898000D01*
X131826000Y-72898000D01*
X131826000Y-102870000D01*
X124714500Y-102870000D01*
X124714500Y-63214497D01*
X156236637Y-63214497D01*
X156236881Y-63218932D01*
X156236881Y-63218936D01*
X156240105Y-63277503D01*
X156252205Y-63497370D01*
X156307474Y-63775226D01*
X156308950Y-63779429D01*
X156330181Y-63839885D01*
X156401342Y-64042524D01*
X156403395Y-64046477D01*
X156403398Y-64046483D01*
X156477360Y-64188865D01*
X156531936Y-64293928D01*
X156534519Y-64297543D01*
X156534523Y-64297549D01*
X156567176Y-64343242D01*
X156696651Y-64524424D01*
X156699729Y-64527651D01*
X156699731Y-64527653D01*
X156742355Y-64572334D01*
X156892199Y-64729412D01*
X157114680Y-64904801D01*
X157224927Y-64968837D01*
X157355807Y-65044859D01*
X157355813Y-65044862D01*
X157359654Y-65047093D01*
X157622232Y-65153448D01*
X157626545Y-65154519D01*
X157626550Y-65154521D01*
X157892856Y-65220672D01*
X157892861Y-65220673D01*
X157897177Y-65221745D01*
X157901605Y-65222199D01*
X157901607Y-65222199D01*
X157977307Y-65229955D01*
X158138790Y-65246500D01*
X158314170Y-65246500D01*
X158524593Y-65231601D01*
X158528948Y-65230663D01*
X158528951Y-65230663D01*
X158797200Y-65172911D01*
X158797202Y-65172911D01*
X158801547Y-65171975D01*
X159067337Y-65073920D01*
X159316660Y-64939393D01*
X159544540Y-64771078D01*
X159746430Y-64572334D01*
X159749131Y-64568794D01*
X159749137Y-64568788D01*
X159915602Y-64350667D01*
X159915605Y-64350663D01*
X159918304Y-64347126D01*
X160056730Y-64099947D01*
X160078946Y-64042524D01*
X160157341Y-63839885D01*
X160157343Y-63839879D01*
X160158948Y-63835730D01*
X160222918Y-63559747D01*
X160247363Y-63277503D01*
X160244140Y-63218936D01*
X160232040Y-62999073D01*
X160232039Y-62999066D01*
X160231795Y-62994630D01*
X160176526Y-62716774D01*
X160155279Y-62656270D01*
X160084136Y-62453684D01*
X160084135Y-62453681D01*
X160082658Y-62449476D01*
X160080605Y-62445523D01*
X160080602Y-62445517D01*
X159954116Y-62202023D01*
X159952064Y-62198072D01*
X159949481Y-62194457D01*
X159949477Y-62194451D01*
X159869858Y-62083037D01*
X159787349Y-61967576D01*
X159745028Y-61923212D01*
X159594876Y-61765811D01*
X159594873Y-61765808D01*
X159591801Y-61762588D01*
X159369320Y-61587199D01*
X159259073Y-61523163D01*
X159128193Y-61447141D01*
X159128187Y-61447138D01*
X159124346Y-61444907D01*
X158861768Y-61338552D01*
X158857455Y-61337481D01*
X158857450Y-61337479D01*
X158591144Y-61271328D01*
X158591139Y-61271327D01*
X158586823Y-61270255D01*
X158582395Y-61269801D01*
X158582393Y-61269801D01*
X158487552Y-61260084D01*
X158345210Y-61245500D01*
X158169830Y-61245500D01*
X157959407Y-61260399D01*
X157955052Y-61261337D01*
X157955049Y-61261337D01*
X157686800Y-61319089D01*
X157686798Y-61319089D01*
X157682453Y-61320025D01*
X157416663Y-61418080D01*
X157167340Y-61552607D01*
X156939460Y-61720922D01*
X156737570Y-61919666D01*
X156734869Y-61923206D01*
X156734863Y-61923212D01*
X156698237Y-61971204D01*
X156565696Y-62144874D01*
X156427270Y-62392053D01*
X156425662Y-62396211D01*
X156425659Y-62396216D01*
X156326659Y-62652115D01*
X156325052Y-62656270D01*
X156261082Y-62932253D01*
X156236637Y-63214497D01*
X124714500Y-63214497D01*
X124714500Y-59308500D01*
X124734502Y-59240379D01*
X124788158Y-59193886D01*
X124840500Y-59182500D01*
X180213500Y-59182500D01*
X180281621Y-59202502D01*
G37*
%TD.AperFunction*%
%TD*%
M02*
